<svg width="256" height="256" viewBox="0 0 256 256" fill="none" xmlns="http://www.w3.org/2000/svg">
<g clip-path="url(#clip0_58_59)">
<path d="M128.003 199.216C167.338 199.216 199.224 167.328 199.224 127.993C199.224 88.658 167.338 56.77 128.003 56.77C88.6678 56.77 56.7808 88.658 56.7808 127.993C56.7808 167.328 88.6678 199.216 128.003 199.216Z" fill="white"/>
<path d="M35.8899 92.997C30.5769 83.794 24.3319 74.135 17.1539 64.02C5.91758 83.4774 0.00184652 105.55 0.00146486 128.019C0.0010832 150.488 5.91607 172.56 17.1517 192.018C28.3874 211.476 44.5477 227.633 64.0078 238.864C83.468 250.096 105.542 256.006 128.011 256.001C139.791 239.478 147.791 227.564 152.007 220.261C160.106 206.233 170.58 186.149 183.43 160.01V159.995C177.816 169.728 169.738 177.812 160.009 183.433C150.28 189.054 139.242 192.014 128.006 192.016C116.77 192.017 105.732 189.06 96.0007 183.443C86.2699 177.825 78.1897 169.744 72.5729 160.012C55.1199 127.464 42.8929 105.125 35.8899 92.997Z" fill="#229342"/>
<path d="M128.008 255.996C144.817 255.999 161.463 252.69 176.993 246.258C192.523 239.826 206.634 230.398 218.52 218.511C230.406 206.625 239.834 192.513 246.264 176.983C252.695 161.452 256.003 144.807 256 127.997C255.996 105.528 250.076 83.4559 238.837 64C214.589 61.61 196.694 60.415 185.151 60.415C172.063 60.415 153.012 61.61 127.999 64L127.985 64.01C139.221 64.0048 150.261 66.9582 159.994 72.5732C169.726 78.1883 177.809 86.2671 183.429 95.997C189.048 105.727 192.007 116.766 192.007 128.002C192.007 139.239 189.048 150.277 183.428 160.007L128.008 255.996Z" fill="#FBC116"/>
<path d="M128.003 178.677C155.987 178.677 178.672 155.992 178.672 128.007C178.672 100.021 155.987 77.3369 128.002 77.3369C100.019 77.3369 77.333 100.023 77.333 128.007C77.333 155.991 100.019 178.677 128.003 178.677Z" fill="#1A73E8"/>
<path d="M128.003 64.0039H238.84C227.608 44.5434 211.451 28.383 191.993 17.1476C172.535 5.91226 150.462 -0.00200832 127.993 -0.000487988C105.524 0.00103234 83.4515 5.91829 63.9949 17.1563C44.5383 28.3943 28.3835 44.5569 17.1548 64.0189L72.5738 160.009L72.5888 160.017C66.9663 150.288 64.0045 139.251 64.0012 128.015C63.9979 116.778 66.9532 105.739 72.57 96.0075C78.1867 86.2757 86.2668 78.1944 95.9978 72.5762C105.729 66.9581 116.767 64.0012 128.004 64.0029L128.003 64.0039Z" fill="#E33B2E"/>
</g>
<defs>
<clipPath id="clip0_58_59">
<rect width="256" height="256" fill="white"/>
</clipPath>
</defs>
</svg>
