<svg width="32" height="32" viewBox="0 0 32 32" fill="none" xmlns="http://www.w3.org/2000/svg">
<path d="M5.90179 27.201L3.65479 2H28.3448L26.0948 27.197L15.9848 30L5.90179 27.201Z" fill="#E44F26"/>
<path d="M16 27.858L24.17 25.593L26.092 4.06104H16V27.858Z" fill="#F1662A"/>
<path d="M16 13.4069H11.91L11.628 10.2419H16V7.15088H8.25L8.324 7.98088L9.083 16.4979H16V13.4069ZM16 21.4339L15.986 21.4379L12.544 20.5089L12.324 18.0439H9.221L9.654 22.8959L15.986 24.6539L16 24.6499V21.4339Z" fill="#EBEBEB"/>
<path d="M15.9888 13.4069V16.4979H19.7948L19.4368 20.5069L15.9888 21.4369V24.6529L22.3258 22.8959L22.3718 22.3739L23.0978 14.2369L23.1738 13.4069H22.3408H15.9888ZM15.9888 7.15088V10.2419H23.4548L23.5168 9.54788L23.6578 7.98088L23.7318 7.15088H15.9888Z" fill="white"/>
</svg>
