<svg width="32" height="32" viewBox="0 0 32 32" fill="none" xmlns="http://www.w3.org/2000/svg">
<path d="M16.62 29.9998L15.869 29.7508C15.869 29.7508 15.969 25.9508 14.594 25.6838C13.694 24.6358 14.727 -19.0572 18.017 25.5348C17.3928 25.8514 16.9151 26.3971 16.684 27.0578C16.5601 28.0335 16.5387 29.0196 16.62 29.9998Z" fill="url(#paint0_linear_58_37)"/>
<path d="M17.026 26.3292C19.0256 24.824 20.5569 22.7822 21.442 20.4411C22.3271 18.1001 22.5296 15.5559 22.026 13.1042C20.556 6.61924 17.075 4.48724 16.7 3.67324C16.3765 3.16637 16.1003 2.63078 15.875 2.07324L16.152 20.1422C16.152 20.1422 15.578 25.6642 17.026 26.3292Z" fill="url(#paint1_linear_58_37)"/>
<path d="M15.4869 26.569C15.4869 26.569 9.36586 22.4 9.71986 15.025C9.75288 12.8016 10.2627 10.6113 11.2148 8.60182C12.1669 6.59237 13.5391 4.81065 15.2389 3.377C15.4375 3.20825 15.5953 2.99668 15.7004 2.75818C15.8056 2.51969 15.8553 2.26047 15.8459 2C16.2269 2.82 16.1649 14.243 16.2049 15.579C16.3599 20.776 15.9159 25.588 15.4869 26.569Z" fill="url(#paint2_linear_58_37)"/>
<defs>
<linearGradient id="paint0_linear_58_37" x1="11.5716" y1="16.2521" x2="20.2033" y2="19.1812" gradientUnits="userSpaceOnUse">
<stop offset="0.231" stop-color="#999875"/>
<stop offset="0.563" stop-color="#9B9977"/>
<stop offset="0.683" stop-color="#A09F7E"/>
<stop offset="0.768" stop-color="#A9A889"/>
<stop offset="0.837" stop-color="#B7B69A"/>
<stop offset="0.896" stop-color="#C9C7B0"/>
<stop offset="0.948" stop-color="#DEDDCB"/>
<stop offset="0.994" stop-color="#F8F6EB"/>
<stop offset="1" stop-color="#FBF9EF"/>
</linearGradient>
<linearGradient id="paint1_linear_58_37" x1="14.7369" y1="1.94413" x2="18.553" y2="25.7731" gradientUnits="userSpaceOnUse">
<stop stop-color="#48A547"/>
<stop offset="1" stop-color="#3F9143"/>
</linearGradient>
<linearGradient id="paint2_linear_58_37" x1="9.19333" y1="15.755" x2="19.434" y2="12.3254" gradientUnits="userSpaceOnUse">
<stop stop-color="#41A247"/>
<stop offset="0.352" stop-color="#4BA74B"/>
<stop offset="0.956" stop-color="#67B554"/>
<stop offset="1" stop-color="#69B655"/>
</linearGradient>
</defs>
</svg>
