<svg width="256" height="168" viewBox="0 0 256 168" fill="none" xmlns="http://www.w3.org/2000/svg">
<g clip-path="url(#clip0_58_35)">
<path d="M143.618 167.029H238.784C241.807 167.029 244.776 166.258 247.394 164.792C249.995 163.342 252.168 161.233 253.696 158.677C255.202 156.151 255.998 153.266 256 150.325C256 147.393 255.201 144.514 253.688 141.975L189.778 34.6C188.25 32.0448 186.077 29.9366 183.477 28.487C180.846 27.0174 177.882 26.2469 174.869 26.249C171.846 26.249 168.878 27.021 166.26 28.487C163.66 29.9366 161.487 32.0449 159.96 34.6L143.618 62.073L111.668 8.349C110.139 5.794 107.965 3.68613 105.364 2.237C102.732 0.767945 99.768 -0.00221684 96.754 4.79282e-06C93.732 4.79282e-06 90.762 0.772005 88.144 2.237C85.5433 3.68627 83.3696 5.79413 81.841 8.349L2.31 141.975C0.80096 144.499 0.00277183 147.384 0 150.325C0 153.257 0.793 156.138 2.304 158.677C3.83156 161.233 6.00504 163.342 8.606 164.792C11.2376 166.261 14.202 167.032 17.216 167.029H76.953C100.622 167.029 118.076 156.945 130.087 137.271L159.246 88.288L174.864 62.073L221.738 140.815H159.246L143.618 167.029ZM75.978 140.789L34.29 140.779L96.782 35.796L127.963 88.288L107.086 123.372C99.11 136.137 90.049 140.788 75.979 140.788" fill="#00DC82"/>
</g>
<defs>
<clipPath id="clip0_58_35">
<rect width="256" height="168" fill="white"/>
</clipPath>
</defs>
</svg>
