<svg width="128" height="128" viewBox="0 0 128 128" fill="none" xmlns="http://www.w3.org/2000/svg">
<g clip-path="url(#clip0_58_25)">
<path d="M110.43 16.9361C98.5529 -0.075882 75.0899 -5.11788 58.1299 5.69612L28.3379 24.6961C24.3065 27.2254 20.8473 30.5684 18.1817 34.5111C15.5162 38.4538 13.7029 42.9095 12.8579 47.5931C12.4812 49.6951 12.2895 51.8389 12.2859 53.9891C12.3041 59.8199 13.7323 65.5598 16.4489 70.7191C13.9022 74.5917 12.1644 78.9391 11.3399 83.5001C10.495 88.2682 10.6133 93.2104 11.6849 97.9121C12.7573 102.645 14.7631 107.116 17.5849 111.064C29.4629 128.074 52.9789 133.117 69.8849 122.304L99.6469 103.303C103.676 100.771 107.131 97.4233 109.789 93.4765C112.448 89.5296 114.252 85.0704 115.085 80.3851C115.468 78.278 115.659 76.1407 115.657 73.9991C115.65 68.1795 114.239 62.4474 111.545 57.2891C114.091 53.4201 115.83 49.0766 116.657 44.5191C117.026 42.4091 117.214 40.2741 117.219 38.1331C117.221 30.5387 114.848 23.1339 110.432 16.9551L110.43 16.9361Z" fill="#FF3E00"/>
<path d="M55.219 112.662C53.2621 113.167 51.2664 113.421 49.265 113.422C45.4433 113.422 41.6787 112.495 38.2938 110.72C34.9089 108.946 32.0047 106.378 29.83 103.235C27.1739 99.5183 25.7473 95.0636 25.75 90.4952C25.7517 89.2072 25.8633 87.9228 26.083 86.6622C26.262 85.7136 26.5027 84.7834 26.803 83.8802L27.364 82.1722L28.884 83.3282C32.4116 85.919 36.3537 87.8917 40.542 89.1622L41.646 89.4952L41.542 90.5992V91.1722C41.5396 92.5534 41.9689 93.9009 42.77 95.0262C43.4169 95.9843 44.2882 96.7698 45.308 97.3142C46.3522 97.865 47.4798 98.15 48.62 98.1512C49.2218 98.1536 49.8221 98.0768 50.41 97.9222C51.0482 97.755 51.6647 97.4853 52.243 97.1202L82.003 78.0262C82.8955 77.4596 83.6299 76.6762 84.1377 75.7491C84.6455 74.822 84.9102 73.7813 84.907 72.7242C84.8984 71.3428 84.4578 69.9987 83.647 68.8802C82.9901 67.9346 82.1142 67.1619 81.094 66.6282C80.0493 66.0891 78.9238 65.8134 77.787 65.8182C77.1851 65.8161 76.5849 65.8932 75.997 66.0482C75.3615 66.2112 74.7482 66.4809 74.175 66.8492L62.829 74.0992C60.9195 75.3022 58.8858 76.1953 56.781 76.7552C52.094 77.9752 47.1454 77.7263 42.6044 76.0423C38.0634 74.3582 34.1492 71.3202 31.391 67.3392C28.7382 63.6207 27.3119 59.167 27.311 54.5992C27.313 53.3142 27.425 52.0322 27.644 50.7662C28.1531 47.9513 29.2413 45.2728 30.8398 42.9005C32.4383 40.5283 34.5122 38.5139 36.93 36.9852L66.722 17.9952C68.5912 16.8048 70.6305 15.9055 72.77 15.3282C74.7154 14.8297 76.7157 14.5777 78.724 14.5782C82.5537 14.5697 86.3282 15.4903 89.7239 17.2611C93.1196 19.0319 96.035 21.6 98.22 24.7452C100.857 28.4723 102.266 32.9295 102.249 37.4952C102.247 38.7869 102.135 40.0749 101.915 41.3392C101.737 42.2874 101.497 43.2173 101.197 44.1202L100.635 45.8282L99.115 44.7142C95.5898 42.1195 91.647 40.1465 87.457 38.8802L86.353 38.5372L86.457 37.4322V36.8602C86.4568 35.4759 86.0278 34.1257 85.229 32.9952C84.573 32.0504 83.6981 31.2785 82.679 30.7452C81.6367 30.2061 80.5136 29.9294 79.379 29.9322C78.7826 29.945 78.1891 30.0359 77.609 30.2032C76.9699 30.3637 76.3533 30.6338 75.778 31.0052L45.985 49.9952C45.2786 50.4363 44.6539 51.0452 44.149 51.7852C43.6779 52.476 43.348 53.2902 43.186 54.1622C43.1125 54.5244 43.067 54.8939 43.05 55.2662C43.0493 56.6441 43.4786 57.9879 44.278 59.1102C44.9334 60.0551 45.808 60.8272 46.827 61.3602C47.8696 61.8994 48.9931 62.1758 50.128 62.1722C50.7299 62.1743 51.3301 62.0972 51.918 61.9422C52.5573 61.7802 53.1744 61.5106 53.751 61.1412L65.118 53.8492C67.0267 52.6441 69.0607 51.7508 71.166 51.1932C73.123 50.6894 75.1187 50.4346 77.12 50.4332C80.9423 50.4328 84.7078 51.3583 88.0943 53.1306C91.4809 54.903 94.3877 57.4694 96.566 60.6102C98.2647 62.9906 99.4704 65.6867 100.112 68.5398C100.754 71.393 100.819 74.3456 100.303 77.2242C99.7969 80.0401 98.7098 82.7198 97.111 85.0924C95.5123 87.4651 93.4369 89.4788 91.017 91.0052L61.277 109.995C59.3655 111.204 57.3276 112.101 55.219 112.662Z" fill="white"/>
</g>
<defs>
<clipPath id="clip0_58_25">
<rect width="128" height="128" fill="white"/>
</clipPath>
</defs>
</svg>
