<?xml version="1.0" encoding="UTF-8" standalone="no"?>
<svg
   data-name="Layer 1"
   width="7544.5239"
   height="691.9032"
   viewBox="0 0 7544.524 691.90321"
   version="1.1"
   id="svg58"
   sodipodi:docname="ground.svg"
   inkscape:version="1.1.2 (0a00cf5339, 2022-02-04)"
   xmlns:inkscape="http://www.inkscape.org/namespaces/inkscape"
   xmlns:sodipodi="http://sodipodi.sourceforge.net/DTD/sodipodi-0.dtd"
   xmlns="http://www.w3.org/2000/svg"
   xmlns:svg="http://www.w3.org/2000/svg">
  <defs
     id="defs62" />
  <sodipodi:namedview
     id="namedview60"
     pagecolor="#ffffff"
     bordercolor="#666666"
     borderopacity="1.0"
     inkscape:pageshadow="2"
     inkscape:pageopacity="0.0"
     inkscape:pagecheckerboard="0"
     showgrid="false"
     fit-margin-top="0"
     fit-margin-left="0"
     fit-margin-right="0"
     fit-margin-bottom="0"
     inkscape:zoom="0.1837633"
     inkscape:cx="2261.0608"
     inkscape:cy="372.76213"
     inkscape:window-width="1920"
     inkscape:window-height="1016"
     inkscape:window-x="0"
     inkscape:window-y="0"
     inkscape:window-maximized="1"
     inkscape:current-layer="svg58" />
  <path
     d="m 1230.1628,262.95746 c -1.7885,-1.27142 -1.6135,-4.05333 0.2778,-5.14675 q 0.058,-0.0334 0.1132,-0.069 0.1421,-0.71807 0.2843,-1.43613 c 0.5579,0.61112 1.6551,0.49578 2.0876,-0.21948 a 35.452922,37.387689 0 0 0 -5.8833,-9.29784 3.1773934,3.3507928 0 0 1 -0.046,-4.4448 q 0.014,-0.0169 0.027,-0.034 a 15.042934,15.863869 0 0 0 3.7984,-2.02276 c -4.0084,-6.79173 -11.652,-12.18733 -13.4688,-19.95431 -5.4657,6.18988 -6.0793,8.3699 -11.545,14.55979 0,0 -5.1755,4.92494 -6.2926,7.5717 0.2745,0.30404 2.7318,1.03367 2.8263,1.63148 1.874,0.15843 5.1206,-2.00772 5.1206,-2.00772 0,0 -7.0863,7.96705 -9.2378,12.87439 -0.1937,0.44191 -0.3777,0.9465 -0.2154,1.40228 0.1296,0.36388 0.5945,0.57368 0.8938,0.42911 a 3.8329083,4.0420811 0 0 0 -0.8455,1.27677 3.2924081,3.4720842 0 0 0 4.0617,-0.43139 q -0.4495,0.88563 -0.899,1.77125 l 3e-4,10e-4 a 2.4479438,2.5815351 0 0 1 0.9076,4.3434 c -1.8596,1.8239 -3.5588,3.74103 -4.1815,5.00356 -0.5857,1.18772 5.4284,2.61943 6.7812,2.56072 1.3527,-0.0587 2.6171,-0.68554 3.8388,-1.30072 a 2.8400471,2.9950366 0 0 0 0.3063,1.7042 5.1678451,5.4498692 0 0 0 3.958,-0.67479 c -0.054,1.17492 1.3514,1.82371 2.3269,1.49098 -0.487,8.1245 -0.1307,19.53308 0.3371,31.37649 h 1.1608 v -30.90804 a 3.5002641,3.6912835 0 0 0 0.9804,0.34369 c 2.3749,0.44458 5.2408,0.71488 6.7862,-1.23813 1.7786,1.89133 5.038,1.85543 6.8063,-0.0293 -0.174,0.32516 0.092,0.87235 0.4864,0.95857 0.4644,0.1016 0.9161,-0.18939 1.3104,-0.46735 q 2.6772,-1.88753 5.3544,-3.77508 c -2.2025,-1.5658 -5.3312,-3.79009 -8.2177,-5.84211 z"
     fill="#e6e6e6"
     id="path8-3-6"
     style="stroke-width:0.161491" />
  <path
     d="m 1255.7117,260.70929 c -1.7885,-1.27142 -1.6135,-4.05333 0.2778,-5.14675 q 0.058,-0.0334 0.1132,-0.069 0.1421,-0.71807 0.2843,-1.43613 c 0.5579,0.61112 1.6551,0.49578 2.0876,-0.21948 a 35.452922,37.387689 0 0 0 -5.8833,-9.29784 3.1773934,3.3507928 0 0 1 -0.046,-4.4448 q 0.014,-0.0169 0.027,-0.034 a 15.042934,15.863869 0 0 0 3.7984,-2.02276 c -4.0084,-6.79173 -11.652,-12.18733 -13.4688,-19.95431 -5.4657,6.18988 -6.0793,8.3699 -11.545,14.55979 0,0 -5.1755,4.92494 -6.2926,7.5717 0.2745,0.30404 2.7318,1.03367 2.8263,1.63148 1.874,0.15843 5.1206,-2.00772 5.1206,-2.00772 0,0 -7.0863,7.96705 -9.2378,12.87439 -0.1937,0.44191 -0.3777,0.9465 -0.2154,1.40228 0.1296,0.36388 0.5945,0.57368 0.8938,0.42911 a 3.8329083,4.0420811 0 0 0 -0.8455,1.27677 3.2924081,3.4720842 0 0 0 4.0617,-0.43139 q -0.4495,0.88563 -0.899,1.77125 l 3e-4,10e-4 a 2.4479438,2.5815351 0 0 1 0.9076,4.3434 c -1.8596,1.8239 -3.5588,3.74103 -4.1815,5.00356 -0.5857,1.18772 5.4284,2.61943 6.7812,2.56072 1.3527,-0.0587 2.6171,-0.68554 3.8388,-1.30072 a 2.8400471,2.9950366 0 0 0 0.3063,1.7042 5.1678451,5.4498692 0 0 0 3.958,-0.67479 c -0.054,1.17492 1.3514,1.82371 2.3269,1.49098 -0.487,8.1245 -0.1307,19.53308 0.3371,31.37649 h 1.1608 v -30.90804 a 3.5002641,3.6912835 0 0 0 0.9804,0.34369 c 2.3749,0.44458 5.2408,0.71488 6.7862,-1.23813 1.7786,1.89133 5.038,1.85543 6.8063,-0.0293 -0.174,0.32516 0.092,0.87235 0.4864,0.95857 0.4644,0.1016 0.9161,-0.18939 1.3104,-0.46735 q 2.6772,-1.88753 5.3544,-3.77508 c -2.2025,-1.5658 -5.3312,-3.79009 -8.2177,-5.84211 z"
     fill="#e6e6e6"
     id="path8-3-6-7"
     style="stroke-width:0.161491" />
  <path
     d="m 1365.2321,287.50663 c -1.7885,-1.27142 -1.6135,-4.05333 0.2778,-5.14675 q 0.058,-0.0334 0.1132,-0.069 0.1421,-0.71807 0.2843,-1.43613 c 0.5579,0.61112 1.6551,0.49578 2.0876,-0.21948 a 35.452922,37.387689 0 0 0 -5.8833,-9.29784 3.1773934,3.3507928 0 0 1 -0.046,-4.4448 q 0.014,-0.0169 0.027,-0.034 a 15.042934,15.863869 0 0 0 3.7984,-2.02276 c -4.0084,-6.79173 -11.652,-12.18733 -13.4688,-19.95431 -5.4657,6.18988 -6.0793,8.3699 -11.545,14.55979 0,0 -5.1755,4.92494 -6.2926,7.5717 0.2745,0.30404 2.7318,1.03367 2.8263,1.63148 1.874,0.15843 5.1206,-2.00772 5.1206,-2.00772 0,0 -7.0863,7.96705 -9.2378,12.87439 -0.1937,0.44191 -0.3777,0.9465 -0.2154,1.40228 0.1296,0.36388 0.5945,0.57368 0.8938,0.42911 a 3.8329083,4.0420811 0 0 0 -0.8455,1.27677 3.2924081,3.4720842 0 0 0 4.0617,-0.43139 q -0.4495,0.88563 -0.899,1.77125 l 3e-4,10e-4 a 2.4479438,2.5815351 0 0 1 0.9076,4.3434 c -1.8596,1.8239 -3.5588,3.74103 -4.1815,5.00356 -0.5857,1.18772 5.4284,2.61943 6.7812,2.56072 1.3527,-0.0587 2.6171,-0.68554 3.8388,-1.30072 a 2.8400471,2.9950366 0 0 0 0.3063,1.7042 5.1678451,5.4498692 0 0 0 3.958,-0.67479 c -0.054,1.17492 1.3514,1.82371 2.3269,1.49098 -0.487,8.1245 -0.1307,19.53308 0.3371,31.37649 h 1.1608 v -30.90804 a 3.5002641,3.6912835 0 0 0 0.9804,0.34369 c 2.3749,0.44458 5.2408,0.71488 6.7862,-1.23813 1.7786,1.89133 5.038,1.85543 6.8063,-0.0293 -0.174,0.32516 0.092,0.87235 0.4864,0.95857 0.4644,0.1016 0.9161,-0.18939 1.3104,-0.46735 q 2.6772,-1.88753 5.3544,-3.77508 c -2.2025,-1.5658 -5.3312,-3.79009 -8.2177,-5.84211 z"
     fill="#e6e6e6"
     id="path8-3-6-7-5"
     style="stroke-width:0.161491" />
  <path
     d="m 1452.5889,309.37707 c -1.7885,-1.27142 -1.6135,-4.05333 0.2778,-5.14675 q 0.058,-0.0334 0.1132,-0.069 0.1421,-0.71807 0.2843,-1.43613 c 0.5579,0.61112 1.6551,0.49578 2.0876,-0.21948 a 35.452922,37.387689 0 0 0 -5.8833,-9.29784 3.1773934,3.3507928 0 0 1 -0.046,-4.4448 q 0.014,-0.0169 0.027,-0.034 a 15.042934,15.863869 0 0 0 3.7984,-2.02276 c -4.0084,-6.79173 -11.652,-12.18733 -13.4688,-19.95431 -5.4657,6.18988 -6.0793,8.3699 -11.545,14.55979 0,0 -5.1755,4.92494 -6.2926,7.5717 0.2745,0.30404 2.7318,1.03367 2.8263,1.63148 1.874,0.15843 5.1206,-2.00772 5.1206,-2.00772 0,0 -7.0863,7.96705 -9.2378,12.87439 -0.1937,0.44191 -0.3777,0.9465 -0.2154,1.40228 0.1296,0.36388 0.5945,0.57368 0.8938,0.42911 a 3.8329083,4.0420811 0 0 0 -0.8455,1.27677 3.2924081,3.4720842 0 0 0 4.0617,-0.43139 q -0.4495,0.88563 -0.899,1.77125 l 3e-4,0.001 a 2.4479438,2.5815351 0 0 1 0.9076,4.3434 c -1.8596,1.8239 -3.5588,3.74103 -4.1815,5.00356 -0.5857,1.18772 5.4284,2.61943 6.7812,2.56072 1.3527,-0.0587 2.6171,-0.68554 3.8388,-1.30072 a 2.8400471,2.9950366 0 0 0 0.3063,1.7042 5.1678451,5.4498692 0 0 0 3.958,-0.67479 c -0.054,1.17492 1.3514,1.82371 2.3269,1.49098 -0.487,8.1245 -0.1307,19.53308 0.3371,31.37649 h 1.1608 v -30.90804 a 3.5002641,3.6912835 0 0 0 0.9804,0.34369 c 2.3749,0.44458 5.2408,0.71488 6.7862,-1.23813 1.7786,1.89133 5.038,1.85543 6.8063,-0.0293 -0.174,0.32516 0.092,0.87235 0.4864,0.95857 0.4644,0.1016 0.9161,-0.18939 1.3104,-0.46735 q 2.6772,-1.88753 5.3544,-3.77508 c -2.2025,-1.5658 -5.3312,-3.79009 -8.2177,-5.84211 z"
     fill="#e6e6e6"
     id="path8-3-6-7-5-2"
     style="stroke-width:0.161491" />
  <path
     d="m 1395.1108,303.73412 c -1.1821,-0.88415 -1.0664,-2.81871 0.1836,-3.57909 q 0.038,-0.0232 0.075,-0.048 0.094,-0.49936 0.1879,-0.99871 c 0.3688,0.42498 1.094,0.34478 1.3798,-0.15262 a 23.432389,25.999709 0 0 0 -3.8885,-6.46579 2.1000784,2.3301691 0 0 1 -0.03,-3.09095 q 0.01,-0.0118 0.018,-0.0236 a 9.9425338,11.031866 0 0 0 2.5106,-1.40665 c -2.6494,-4.72302 -7.7014,-8.47516 -8.9022,-13.87638 -3.6125,4.30449 -4.018,5.82049 -7.6306,10.125 0,0 -3.4207,3.42484 -4.159,5.26542 0.1814,0.21142 1.8055,0.71882 1.868,1.13454 1.2386,0.11018 3.3844,-1.39618 3.3844,-1.39618 0,0 -4.6836,5.54035 -6.1056,8.95296 -0.1281,0.3073 -0.2497,0.6582 -0.1424,0.97515 0.086,0.25305 0.3929,0.39894 0.5908,0.29841 a 2.5333369,2.8108967 0 0 0 -0.5589,0.88788 2.1760967,2.4145161 0 0 0 2.6846,-0.3 q -0.2971,0.61588 -0.5942,1.23175 l 2e-4,6.9e-4 a 1.6179533,1.7952209 0 0 1 0.5999,3.02044 c -1.2291,1.26835 -2.3522,2.60154 -2.7638,3.47951 -0.3871,0.82595 3.5879,1.82157 4.482,1.78074 0.8941,-0.0408 1.7298,-0.47672 2.5373,-0.90453 a 1.8771115,2.0827733 0 0 0 0.2024,1.18512 3.4156551,3.7898842 0 0 0 2.616,-0.46926 c -0.036,0.81706 0.8932,1.26822 1.538,1.03685 -0.3219,5.64984 -0.086,13.58346 0.2228,21.81947 h 0.7672 v -21.49371 a 2.3134778,2.5669491 0 0 0 0.648,0.23901 c 1.5697,0.30916 3.4639,0.49713 4.4853,-0.86102 1.1755,1.31525 3.3298,1.29029 4.4986,-0.0204 -0.115,0.22612 0.061,0.60664 0.3214,0.6666 0.307,0.0706 0.6055,-0.13171 0.8661,-0.325 q 1.7695,-1.31261 3.539,-2.62522 c -1.4557,-1.08888 -3.5236,-2.63567 -5.4314,-4.06266 z"
     fill="#e6e6e6"
     id="path8-3-6-7-5-5"
     style="stroke-width:0.109484" />
  <path
     d="m 1190.7924,284.08286 c -1.1821,-0.88415 -1.0664,-2.81871 0.1836,-3.57909 q 0.038,-0.0232 0.075,-0.048 0.094,-0.49936 0.1879,-0.99871 c 0.3688,0.42498 1.094,0.34478 1.3798,-0.15262 a 23.432389,25.999709 0 0 0 -3.8885,-6.46579 2.1000784,2.3301691 0 0 1 -0.03,-3.09095 q 0.01,-0.0118 0.018,-0.0236 a 9.9425338,11.031866 0 0 0 2.5106,-1.40665 c -2.6494,-4.72302 -7.7014,-8.47516 -8.9022,-13.87638 -3.6125,4.30449 -4.018,5.82049 -7.6306,10.125 0,0 -3.4207,3.42484 -4.159,5.26542 0.1814,0.21142 1.8055,0.71882 1.868,1.13454 1.2386,0.11018 3.3844,-1.39618 3.3844,-1.39618 0,0 -4.6836,5.54035 -6.1056,8.95296 -0.1281,0.3073 -0.2497,0.6582 -0.1424,0.97515 0.086,0.25305 0.3929,0.39894 0.5908,0.29841 a 2.5333369,2.8108967 0 0 0 -0.5589,0.88788 2.1760967,2.4145161 0 0 0 2.6846,-0.3 q -0.2971,0.61588 -0.5942,1.23175 l 2e-4,6.9e-4 a 1.6179533,1.7952209 0 0 1 0.5999,3.02044 c -1.2291,1.26835 -2.3522,2.60154 -2.7638,3.47951 -0.3871,0.82595 3.5879,1.82157 4.482,1.78074 0.8941,-0.0408 1.7298,-0.47672 2.5373,-0.90453 a 1.8771115,2.0827733 0 0 0 0.2024,1.18512 3.4156551,3.7898842 0 0 0 2.616,-0.46926 c -0.036,0.81706 0.8932,1.26822 1.538,1.03685 -0.3219,5.64984 -0.086,13.58346 0.2228,21.81947 h 0.7672 v -21.49371 a 2.3134778,2.5669491 0 0 0 0.648,0.23901 c 1.5697,0.30916 3.4639,0.49713 4.4853,-0.86102 1.1755,1.31525 3.3298,1.29029 4.4986,-0.0204 -0.115,0.22612 0.061,0.60664 0.3214,0.6666 0.307,0.0706 0.6055,-0.13171 0.8661,-0.325 q 1.7695,-1.31261 3.539,-2.62522 c -1.4557,-1.08888 -3.5236,-2.63567 -5.4314,-4.06266 z"
     fill="#e6e6e6"
     id="path8-3-6-7-5-5-6"
     style="stroke-width:0.109484" />
  <path
     d="m 1303.6175,279.31037 c -1.555,-1.10546 -1.4028,-3.52424 0.2416,-4.47494 q 0.05,-0.029 0.098,-0.06 0.1236,-0.62434 0.2472,-1.24867 c 0.4851,0.53135 1.439,0.43106 1.8151,-0.19083 a 30.825204,32.507423 0 0 0 -5.1154,-8.08418 2.7626439,2.9134093 0 0 1 -0.04,-3.86462 q 0.012,-0.0147 0.023,-0.0296 a 13.079359,13.793137 0 0 0 3.3026,-1.75873 c -3.4852,-5.90519 -10.131,-10.5965 -11.7107,-17.34964 -4.7522,5.3819 -5.2857,7.27736 -10.038,12.65928 0,0 -4.4999,4.28208 -5.4712,6.58335 0.2387,0.26436 2.3752,0.89875 2.4574,1.41852 1.6293,0.13775 4.4522,-1.74565 4.4522,-1.74565 0,0 -6.1614,6.9271 -8.032,11.19388 -0.1684,0.38423 -0.3284,0.82296 -0.1873,1.21924 0.1127,0.31638 0.5169,0.4988 0.7771,0.3731 a 3.3325936,3.5144628 0 0 0 -0.7351,1.11011 2.8626456,3.0188683 0 0 0 3.5315,-0.37508 q -0.3908,0.77003 -0.7816,1.54005 l 2e-4,8.7e-4 a 2.1284104,2.2445638 0 0 1 0.7892,3.77645 c -1.6169,1.58582 -3.0943,3.2527 -3.6357,4.35044 -0.5093,1.03268 4.7198,2.27751 5.896,2.22646 1.1761,-0.051 2.2755,-0.59605 3.3377,-1.13093 a 2.4693319,2.6040904 0 0 0 0.2664,1.48174 4.4932793,4.7384904 0 0 0 3.4413,-0.5867 c -0.047,1.02155 1.175,1.58565 2.0232,1.29636 -0.4235,7.06399 -0.1137,16.9834 0.2931,27.28087 h 1.0093 v -26.87357 a 3.0433699,3.2094553 0 0 0 0.8524,0.29883 c 2.0649,0.38654 4.5567,0.62156 5.9004,-1.07652 1.5464,1.64445 4.3803,1.61324 5.9178,-0.0255 -0.1513,0.28271 0.08,0.75848 0.4229,0.83344 0.4038,0.0883 0.7966,-0.16467 1.1394,-0.40634 q 2.3277,-1.64115 4.6555,-3.28232 c -1.915,-1.36141 -4.6353,-3.29536 -7.1451,-5.07953 z"
     fill="#e6e6e6"
     id="path8-3-6-7-5-3"
     style="stroke-width:0.140411" />
  <path
     d="m 2322.8608,622.52356 c -111.938,50.33699 -579.26,-10.28041 -648.4633,-9.42596 -113.7987,4.92275 -185.0258,3.11666 -381.7388,10.42881 -247.29,-52.06628 -598.93249,23.61852 -822.94923,-32.8828 -15.4689,-40.67459 -266.02867,13.7052 -266.76417,-29.40866 177.74087,-63.28098 277.79999,-154.95676 329.10197,-136.21518 49.1045,18.0233 89.8235,-49.85589 140.2887,-45.52659 74.3892,6.38513 152.4337,63.37715 215.8018,24.63198 63.368,-38.74516 124.46823,-84.11822 194.77163,-105.40239 94.2908,-28.54188 196.9978,-11.41855 296.5157,5.84758 852.1236,274.54872 683.1022,26.64521 943.4357,317.95321 z"
     fill="#f2f2f2"
     id="path6"
     style="stroke-width:1.3206"
     sodipodi:nodetypes="cccccccsccc" />
  <path
     d="m 4029.5434,637.56365 c -111.938,50.33699 -579.26,-10.28041 -648.4633,-9.42596 -113.7987,4.92275 -185.0258,3.11666 -381.7388,10.42881 -247.29,-52.06628 -598.9325,23.61852 -822.9492,-32.8828 -15.4689,-40.67459 -266.0287,13.7052 -266.7642,-29.40866 177.7409,-63.28098 277.8,-154.95676 329.102,-136.21518 49.1045,18.0233 89.8235,-49.85589 140.2887,-45.52659 74.3892,6.38513 152.4337,63.37715 215.8018,24.63198 63.368,-38.74516 124.4682,-84.11822 194.7716,-105.40239 94.2908,-28.54188 196.9978,-11.41855 296.5157,5.84758 852.1236,274.54872 888.8608,29.42593 943.4357,317.95321 z"
     fill="#f2f2f2"
     id="path6-9"
     style="stroke-width:1.3206"
     sodipodi:nodetypes="cccccccsccc" />
  <path
     d="m 4029.5434,637.56365 c -21.3787,73.00047 -2351.5907,-10.1548 -3778.74914,7.57392 -45.87994,-1.43 -252.4813329,24.1885 -250.78386009,-20.59602 C 15.219475,532.07311 -18.51335,457.33333 37.27426,451.52757 c 35.88,-3.42 71.19,9.72 103.82,25.01 32.64,15.28 64.69,33.14 100.03,40.19 52.08,10.39 105.84,-3.74 155.77,-21.83 49.93,-18.09 99.08,-40.43 151.74,-47.26 70.63,-9.17 141.5,10.24 210.08,29.46 73.05,20.47 322.01424,18.85912 395.07084,39.33579 818.6095,-50.55746 1454.9333,-91.98066 1861.3826,-46.58308 482.1599,53.85392 1015.3489,53.30855 1014.3757,167.71337 z"
     fill="#e6e6e6"
     id="path4"
     sodipodi:nodetypes="ccccccscccsc" />
  <path
     d="m 285.86733,264.94452 c -11.37261,-7.6666 -10.2601,-24.44139 1.76661,-31.03466 q 0.36706,-0.20124 0.71988,-0.41616 0.90407,-4.32993 1.80822,-8.65978 c 3.54785,3.685 10.52442,2.98952 13.27491,-1.32343 a 225.44564,225.44564 0 0 0 -37.41171,-56.06548 20.20509,20.20509 0 0 1 -0.29046,-26.8019 q 0.0872,-0.10167 0.17294,-0.20488 a 95.65823,95.65823 0 0 0 24.15423,-12.19715 C 264.57205,87.287327 215.9664,54.752177 204.41332,7.9176988 169.65661,45.242327 165.75495,58.387747 130.99816,95.712377 c 0,0 -32.910615,29.697183 -40.014135,45.656933 1.74539,1.83339 17.371425,6.233 17.972155,9.83777 11.91681,0.95532 32.56209,-12.10645 32.56209,-12.10645 0,0 -45.061775,48.04087 -58.743065,77.63181 -1.232,2.6647 -2.40211,5.70738 -1.37,8.4557 0.824,2.19417 3.78008,3.45928 5.68391,2.5875 a 24.37352,24.37352 0 0 0 -5.37657,7.69885 20.93647,20.93647 0 0 0 25.827995,-2.60127 q -2.85839,5.34033 -5.7168,10.68053 l 0.003,0.008 a 15.56651,15.56651 0 0 1 5.77117,26.19045 c -11.825215,10.998 -22.630385,22.55822 -26.589645,30.17117 -3.72466,7.16188 34.519205,15.795 43.121175,15.441 8.60198,-0.354 16.64241,-4.13372 24.41155,-7.84324 a 18.0599,18.0599 0 0 0 1.94757,10.27618 32.8624,32.8624 0 0 0 25.16871,-4.06893 c -0.34282,7.08471 8.594,10.99688 14.797,8.99055 -3.09681,48.99028 -0.83155,117.78337 2.14363,189.19844 h 7.38145 V 325.54366 a 22.25823,22.25823 0 0 0 6.23435,2.07242 c 15.102,2.68077 33.3263,4.31066 43.15324,-7.46587 11.31034,11.40463 32.0369,11.18815 43.28184,-0.17664 -1.10671,1.9607 0.58717,5.26025 3.09287,5.78012 2.95295,0.61266 5.82579,-1.142 8.3329,-2.81807 q 17.02441,-11.38173 34.04887,-22.7635 c -14.00577,-9.44167 -33.90171,-22.85404 -52.25648,-35.2276 z"
     fill="#e6e6e6"
     id="path8" />
  <path
     d="m 513.60906,377.92682 c -5.33384,-3.59569 -4.81207,-11.4632 0.82855,-14.55549 q 0.17216,-0.0944 0.33763,-0.19518 0.42402,-2.03077 0.84807,-4.06151 c 1.66397,1.7283 4.93604,1.40211 6.22604,-0.6207 a 105.73574,105.73574 0 0 0 -17.54638,-26.29514 9.4763427,9.4763427 0 0 1 -0.13623,-12.5703 q 0.0409,-0.0477 0.0811,-0.0961 a 44.864446,44.864446 0 0 0 11.32852,-5.72055 c -11.95496,-19.20763 -34.75138,-34.46686 -40.16987,-56.43259 -16.30116,17.50554 -18.13107,23.67084 -34.43227,41.17638 0,0 -15.43534,13.9282 -18.76694,21.41345 0.8186,0.85987 8.14733,2.92332 8.42908,4.61399 5.58907,0.44805 15.27187,-5.67802 15.27187,-5.67802 0,0 -21.13432,22.53154 -27.55095,36.40992 -0.57782,1.24976 -1.12661,2.6768 -0.64254,3.96578 0.38646,1.02909 1.77288,1.62243 2.6658,1.21356 a 11.431368,11.431368 0 0 0 -2.52166,3.61082 9.8193656,9.8193656 0 0 0 12.11353,-1.22001 q -1.34061,2.50465 -2.68122,5.00925 l 0.001,0.004 a 7.300813,7.300813 0 0 1 2.70673,12.28352 c -5.54612,5.15815 -10.61383,10.57998 -12.47075,14.15051 -1.74689,3.35898 16.18977,7.40798 20.22417,7.24195 4.03439,-0.16603 7.80541,-1.93875 11.4492,-3.67854 a 8.4702321,8.4702321 0 0 0 0.91343,4.81961 15.412719,15.412719 0 0 0 11.80431,-1.90836 c -0.16078,3.32278 4.03066,5.15762 6.93991,4.21664 -1.45243,22.97681 -0.39,55.2413 1.00538,88.73552 h 3.46196 v -87.4107 a 10.439281,10.439281 0 0 0 2.92395,0.97198 c 7.08296,1.2573 15.6303,2.02173 20.23921,-3.50155 5.30463,5.34886 15.02555,5.24732 20.29951,-0.0829 -0.51905,0.91958 0.27539,2.4671 1.45058,2.71092 1.38496,0.28734 2.73234,-0.53561 3.9082,-1.3217 q 7.98458,-5.33811 15.96918,-10.67625 c -6.56882,-4.42822 -15.90016,-10.71872 -24.50869,-16.52202 z"
     fill="#e6e6e6"
     id="path8-3"
     style="stroke-width:0.469008" />
  <path
     d="m 924.46185,294.76436 c -11.37263,-7.6666 -10.2601,-24.44139 1.7666,-31.03466 q 0.3671,-0.20124 0.7199,-0.41616 0.904,-4.32993 1.8082,-8.65978 c 3.5478,3.685 10.5244,2.98952 13.2749,-1.32343 a 225.44564,225.44564 0 0 0 -37.41171,-56.06548 20.20509,20.20509 0 0 1 -0.29046,-26.8019 q 0.0872,-0.10167 0.17294,-0.20488 a 95.65823,95.65823 0 0 0 24.15423,-12.19715 C 903.16655,117.10717 854.5609,84.572017 843.00782,37.737537 c -34.75671,37.32463 -38.65837,50.47005 -73.41516,87.794683 0,0 -32.91062,29.69718 -40.01414,45.65693 1.74539,1.83339 17.37143,6.233 17.97216,9.83777 11.91681,0.95532 32.56209,-12.10645 32.56209,-12.10645 0,0 -45.06178,48.04087 -58.74307,77.63181 -1.232,2.6647 -2.40211,5.70738 -1.37,8.4557 0.824,2.19417 3.78008,3.45928 5.68391,2.5875 a 24.37352,24.37352 0 0 0 -5.37657,7.69885 20.93647,20.93647 0 0 0 25.82805,-2.60127 q -2.8584,5.34033 -5.71681,10.68053 l 0.003,0.008 a 15.56651,15.56651 0 0 1 5.77118,26.19045 c -11.82522,10.998 -22.63039,22.55822 -26.58965,30.17117 -3.72466,7.16188 34.5192,15.795 43.12118,15.441 8.60198,-0.354 16.64241,-4.13372 24.41155,-7.84324 a 18.0599,18.0599 0 0 0 1.94752,10.27618 32.8624,32.8624 0 0 0 25.16871,-4.06893 c -0.34282,7.08471 8.594,10.99688 14.797,8.99055 -3.09681,48.99028 -0.83155,117.78337 2.14363,189.19844 h 7.38145 V 355.3635 a 22.25823,22.25823 0 0 0 6.23435,2.07242 c 15.102,2.68077 33.3263,4.31066 43.15324,-7.46587 11.31034,11.40463 32.03692,11.18815 43.28182,-0.17664 -1.1067,1.9607 0.5872,5.26025 3.0929,5.78012 2.9529,0.61266 5.8258,-1.14195 8.3329,-2.81807 q 17.0244,-11.38173 34.0489,-22.7635 c -14.0058,-9.44167 -33.9017,-22.85404 -52.2565,-35.2276 z"
     fill="#e6e6e6"
     id="path16" />
  <path
     d="m 151.59259,515.70538 a 3.61324,3.61324 0 0 1 -2.61866,-6.26263 c 0.0911,-0.36212 0.15647,-0.62217 0.24758,-0.98429 q -0.0489,-0.11823 -0.0984,-0.23628 a 9.70311,9.70311 0 0 0 -17.89849,0.0665 c -2.92739,7.05051 -6.65446,14.11307 -7.57216,21.56779 a 28.70521,28.70521 0 0 0 0.50391,9.87235 115.086,115.086 0 0 1 -10.46898,-47.79893 111.07978,111.07978 0 0 1 0.689,-12.392 q 0.57081,-5.05968 1.58378,-10.04731 a 116.41946,116.41946 0 0 1 23.087,-49.34151 30.98262,30.98262 0 0 0 12.88557,-13.36893 23.63324,23.63324 0 0 0 2.14932,-6.45821 c -0.62728,0.0823 -1.26488,0.13369 -1.89217,0.17479 -0.19542,0.0102 -0.40108,0.0206 -0.5965,0.0309 l -0.0737,0.003 a 3.57989,3.57989 0 0 1 -2.9401,-5.83225 q 0.40628,-0.5 0.81305,-0.99948 c 0.4114,-0.51422 0.833,-1.01813 1.24434,-1.53227 a 1.78213,1.78213 0 0 0 0.1337,-0.15433 c 0.47312,-0.58618 0.94608,-1.16206 1.41921,-1.74824 a 10.35167,10.35167 0 0 0 -3.39367,-3.28044 c -4.74083,-2.77662 -11.28132,-0.85358 -14.70585,3.43476 -3.43477,4.28826 -4.0826,10.30438 -2.88976,15.66218 a 41.48487,41.48487 0 0 0 5.73841,12.793 c -0.25715,0.32912 -0.52454,0.64792 -0.78161,0.977 a 117.172,117.172 0 0 0 -12.22972,19.37481 48.70925,48.70925 0 0 0 -2.908,-22.62446 c -2.78346,-6.71479 -8.00065,-12.37 -12.59501,-18.175 -5.51855,-6.9726 -16.834873,-3.92959 -17.807123,4.90927 q -0.0141,0.12837 -0.0276,0.25666 1.02362,0.57749 2.004,1.22585 a 4.90111,4.90111 0 0 1 -1.976,8.91909 l -0.0999,0.0154 a 48.76572,48.76572 0 0 0 1.28543,7.29124 50.20985,50.20985 0 0 0 24.999913,31.46843 c 0.40108,0.20566 0.79192,0.41132 1.193,0.60674 a 116.53349,116.53349 0 0 0 -4.40149,15.88839 117.59793,117.59793 0 0 0 -2.03618,14.4076 113.433,113.433 0 0 0 0.0823,18.31542 l -0.0309,-0.216 a 29.974,29.974 0 0 0 -10.2324,-17.30759 c -7.874373,-6.46853 -18.999403,-8.8505 -27.494453,-14.04994 a 5.62529,5.62529 0 0 0 -8.61572,5.47252 q 0.0171,0.11351 0.0348,0.227 a 32.92361,32.92361 0 0 1 3.69183,1.779 q 1.02363,0.57761 2.004,1.22585 a 4.90115,4.90115 0 0 1 -1.976,8.91916 l -0.1,0.0153 c -0.072,0.0103 -0.1337,0.0206 -0.20558,0.031 a 48.808,48.808 0 0 0 8.97768,14.05786 50.25439,50.25439 0 0 0 36.445713,15.99129 h 0.0103 a 119.56321,119.56321 0 0 0 8.03168,23.447 h 28.69164 c 0.10291,-0.3188 0.19542,-0.64791 0.288,-0.96671 a 32.59917,32.59917 0 0 1 -7.93915,-0.473 c 2.12877,-2.61214 4.25747,-5.24483 6.38625,-7.85688 a 1.783,1.783 0 0 0 0.13369,-0.15425 c 1.07978,-1.33685 2.16988,-2.66347 3.24966,-4.00032 l 5.8e-4,-0.002 a 47.75114,47.75114 0 0 0 -1.39916,-12.16411 z"
     fill="#e6e6e6"
     id="path18" />
  <path
     d="m 1554.5184,499.00198 a 3.61324,3.61324 0 0 0 2.6187,-6.26263 c -0.091,-0.36212 -0.1565,-0.62217 -0.2476,-0.98429 q 0.049,-0.11823 0.098,-0.23628 a 9.70311,9.70311 0 0 1 17.8985,0.0665 c 2.9274,7.05051 6.6544,14.11307 7.5721,21.56779 a 28.70521,28.70521 0 0 1 -0.5039,9.87235 115.086,115.086 0 0 0 10.469,-47.79893 111.07978,111.07978 0 0 0 -0.689,-12.392 q -0.5708,-5.05968 -1.5838,-10.04731 a 116.41946,116.41946 0 0 0 -23.087,-49.34151 30.98262,30.98262 0 0 1 -12.8855,-13.36893 23.63324,23.63324 0 0 1 -2.1494,-6.45821 c 0.6273,0.0823 1.2649,0.13369 1.8922,0.17479 0.1954,0.0102 0.4011,0.0206 0.5965,0.0309 l 0.074,0.003 a 3.57989,3.57989 0 0 0 2.9401,-5.83225 q -0.4063,-0.5 -0.813,-0.99948 c -0.4114,-0.51422 -0.833,-1.01813 -1.2443,-1.53227 a 1.78213,1.78213 0 0 1 -0.1337,-0.15433 c -0.4731,-0.58618 -0.9461,-1.16206 -1.4192,-1.74824 a 10.35167,10.35167 0 0 1 3.3936,-3.28044 c 4.7409,-2.77662 11.2814,-0.85358 14.7059,3.43476 3.4348,4.28826 4.0826,10.30438 2.8897,15.66218 a 41.48487,41.48487 0 0 1 -5.7384,12.793 c 0.2572,0.32912 0.5246,0.64792 0.7816,0.977 a 117.172,117.172 0 0 1 12.2298,19.37481 48.70925,48.70925 0 0 1 2.908,-22.62446 c 2.7834,-6.71479 8.0006,-12.37 12.595,-18.175 5.5185,-6.9726 16.8348,-3.92959 17.8071,4.90927 q 0.014,0.12837 0.027,0.25666 -1.0236,0.57749 -2.004,1.22585 a 4.90111,4.90111 0 0 0 1.9761,8.91909 l 0.1,0.0154 a 48.76572,48.76572 0 0 1 -1.2854,7.29124 50.20985,50.20985 0 0 1 -24.9999,31.46836 c -0.4011,0.20566 -0.7919,0.41132 -1.193,0.60674 a 119.59737,119.59737 0 0 1 6.4377,30.296 113.433,113.433 0 0 1 -0.082,18.31542 l 0.031,-0.216 a 29.974,29.974 0 0 1 10.2324,-17.30759 c 7.8744,-6.46853 18.9994,-8.8505 27.4944,-14.04994 a 5.62529,5.62529 0 0 1 8.6157,5.47252 q -0.017,0.11351 -0.035,0.227 a 32.92361,32.92361 0 0 0 -3.6918,1.779 q -1.0236,0.57761 -2.0039,1.22585 a 4.90115,4.90115 0 0 0 1.9759,8.91916 l 0.1,0.0154 c 0.072,0.0103 0.1337,0.0206 0.2056,0.031 a 48.808,48.808 0 0 1 -8.9776,14.05786 50.25439,50.25439 0 0 1 -36.4457,15.99129 h -0.01 a 119.56321,119.56321 0 0 1 -8.0316,23.447 h -28.6917 c -0.1029,-0.3188 -0.1954,-0.64791 -0.288,-0.96671 a 32.59917,32.59917 0 0 0 7.9391,-0.473 c -2.1287,-2.61214 -4.2574,-5.24483 -6.3862,-7.85688 a 1.783,1.783 0 0 1 -0.1337,-0.15425 c -1.0798,-1.33685 -2.1699,-2.66347 -3.2497,-4.00032 l -5e-4,-0.002 a 47.75114,47.75114 0 0 1 1.3991,-12.16411 z"
     fill="#e6e6e6"
     id="path20" />
  <path
     d="m 581.70829,429.75524 a 3.61324,3.61324 0 0 0 2.61866,-6.26263 c -0.0911,-0.36212 -0.15647,-0.62217 -0.24758,-0.98429 q 0.0489,-0.11823 0.0984,-0.23628 a 9.70311,9.70311 0 0 1 17.89849,0.0665 c 2.92739,7.05051 6.65446,14.11307 7.57216,21.56779 a 28.70521,28.70521 0 0 1 -0.50391,9.87235 115.086,115.086 0 0 0 10.46897,-47.79893 111.07978,111.07978 0 0 0 -0.689,-12.392 q -0.57079,-5.05968 -1.58377,-10.04731 a 116.41946,116.41946 0 0 0 -23.087,-49.34151 30.98262,30.98262 0 0 1 -12.88557,-13.36893 23.63324,23.63324 0 0 1 -2.14932,-6.45821 c 0.62728,0.0823 1.26488,0.13369 1.89217,0.17479 0.19542,0.0102 0.40108,0.0205 0.5965,0.0309 l 0.0737,0.003 a 3.57989,3.57989 0 0 0 2.9401,-5.83225 q -0.40628,-0.5 -0.813,-0.99948 c -0.4114,-0.51422 -0.833,-1.01813 -1.24434,-1.53227 a 1.78213,1.78213 0 0 1 -0.1337,-0.15433 c -0.47312,-0.58618 -0.94608,-1.16206 -1.41921,-1.74824 a 10.35167,10.35167 0 0 1 3.39367,-3.28044 c 4.74083,-2.77662 11.28132,-0.85358 14.70585,3.43476 3.43477,4.28826 4.0826,10.30438 2.88976,15.66218 a 41.48487,41.48487 0 0 1 -5.73841,12.793 c 0.25715,0.32912 0.52454,0.64792 0.78161,0.977 a 117.172,117.172 0 0 1 12.22972,19.37481 48.70925,48.70925 0 0 1 2.908,-22.62446 c 2.78346,-6.71479 8.00064,-12.37 12.595,-18.175 5.51856,-6.9726 16.83488,-3.92959 17.80713,4.90927 q 0.0141,0.12837 0.0276,0.25666 -1.02361,0.57748 -2.004,1.22585 a 4.90111,4.90111 0 0 0 1.976,8.91909 l 0.0999,0.0154 a 48.76572,48.76572 0 0 1 -1.28543,7.29124 50.20985,50.20985 0 0 1 -24.99996,31.46843 c -0.40108,0.20566 -0.79192,0.41132 -1.193,0.60674 a 119.59737,119.59737 0 0 1 6.43766,30.296 113.433,113.433 0 0 1 -0.0823,18.31542 l 0.0309,-0.216 a 29.974,29.974 0 0 1 10.23241,-17.30759 c 7.87437,-6.46853 18.9994,-8.8505 27.49445,-14.04994 a 5.62529,5.62529 0 0 1 8.61572,5.47252 q -0.0171,0.11351 -0.0347,0.227 a 32.92361,32.92361 0 0 0 -3.69183,1.779 q -1.02363,0.57761 -2.004,1.22585 a 4.90115,4.90115 0 0 0 1.976,8.91916 l 0.1,0.0154 c 0.072,0.0103 0.1337,0.0206 0.20558,0.031 a 48.808,48.808 0 0 1 -8.97768,14.05786 50.25439,50.25439 0 0 1 -36.44572,15.99129 h -0.0103 a 119.56321,119.56321 0 0 1 -8.03167,23.447 h -28.69164 c -0.10291,-0.3188 -0.19542,-0.64791 -0.288,-0.96671 a 32.59917,32.59917 0 0 0 7.93915,-0.473 c -2.12877,-2.61214 -4.25747,-5.24483 -6.38625,-7.85688 a 1.783,1.783 0 0 1 -0.13369,-0.15425 c -1.07978,-1.33685 -2.16988,-2.66347 -3.24966,-4.00032 l -5.8e-4,-0.002 a 47.75114,47.75114 0 0 1 1.39916,-12.16411 z"
     fill="#e6e6e6"
     id="path22" />
  <polygon
     points="319.901,699.669 318.821,701.498 319.592,701.62 "
     fill="#2f2e41"
     id="polygon34"
     transform="translate(4.7380599,-83.262423)" />
  <path
     d="m 2914.8395,265.1467 c -1.7885,-1.27142 -1.6135,-4.05333 0.2778,-5.14675 q 0.058,-0.0334 0.1132,-0.069 0.1421,-0.71807 0.2843,-1.43613 c 0.5579,0.61112 1.6551,0.49578 2.0876,-0.21948 a 35.452922,37.387689 0 0 0 -5.8833,-9.29784 3.1773934,3.3507928 0 0 1 -0.046,-4.4448 q 0.014,-0.0169 0.027,-0.034 a 15.042934,15.863869 0 0 0 3.7984,-2.02276 c -4.0084,-6.79173 -11.652,-12.18733 -13.4688,-19.95431 -5.4657,6.18988 -6.0793,8.3699 -11.545,14.55979 0,0 -5.1755,4.92494 -6.2926,7.5717 0.2745,0.30404 2.7318,1.03367 2.8263,1.63148 1.874,0.15843 5.1206,-2.00772 5.1206,-2.00772 0,0 -7.0863,7.96705 -9.2378,12.87439 -0.1937,0.44191 -0.3777,0.9465 -0.2154,1.40228 0.1296,0.36388 0.5945,0.57368 0.8938,0.42911 a 3.8329083,4.0420811 0 0 0 -0.8455,1.27677 3.2924081,3.4720842 0 0 0 4.0617,-0.43139 q -0.4495,0.88563 -0.899,1.77125 l 3e-4,10e-4 a 2.4479438,2.5815351 0 0 1 0.9076,4.3434 c -1.8596,1.8239 -3.5588,3.74103 -4.1815,5.00356 -0.5857,1.18772 5.4284,2.61943 6.7812,2.56072 1.3527,-0.0587 2.6171,-0.68554 3.8388,-1.30072 a 2.8400471,2.9950366 0 0 0 0.3063,1.7042 5.1678451,5.4498692 0 0 0 3.958,-0.67479 c -0.054,1.17492 1.3514,1.82371 2.3269,1.49098 -0.487,8.1245 -0.1307,19.53308 0.3371,31.37649 h 1.1608 v -30.90804 a 3.5002641,3.6912835 0 0 0 0.9804,0.34369 c 2.3749,0.44458 5.2408,0.71488 6.7862,-1.23813 1.7786,1.89133 5.038,1.85543 6.8063,-0.0293 -0.174,0.32516 0.092,0.87235 0.4864,0.95857 0.4644,0.1016 0.9161,-0.18939 1.3104,-0.46735 q 2.6772,-1.88753 5.3544,-3.77508 c -2.2025,-1.5658 -5.3312,-3.79009 -8.2177,-5.84211 z"
     fill="#e6e6e6"
     id="path8-3-6-7-5-1"
     style="stroke-width:0.161491" />
  <path
     d="m 2843.2366,289.22669 c -1.7885,-1.27142 -1.6135,-4.05333 0.2778,-5.14675 q 0.058,-0.0334 0.1132,-0.069 0.1421,-0.71807 0.2843,-1.43613 c 0.5579,0.61112 1.6551,0.49578 2.0876,-0.21948 a 35.452922,37.387689 0 0 0 -5.8833,-9.29784 3.1773934,3.3507928 0 0 1 -0.046,-4.4448 q 0.014,-0.0169 0.027,-0.034 a 15.042934,15.863869 0 0 0 3.7984,-2.02276 c -4.0084,-6.79173 -11.652,-12.18733 -13.4688,-19.95431 -5.4657,6.18988 -6.0793,8.3699 -11.545,14.55979 0,0 -5.1755,4.92494 -6.2926,7.5717 0.2745,0.30404 2.7318,1.03367 2.8263,1.63148 1.874,0.15843 5.1206,-2.00772 5.1206,-2.00772 0,0 -7.0863,7.96705 -9.2378,12.87439 -0.1937,0.44191 -0.3777,0.9465 -0.2154,1.40228 0.1296,0.36388 0.5945,0.57368 0.8938,0.42911 a 3.8329083,4.0420811 0 0 0 -0.8455,1.27677 3.2924081,3.4720842 0 0 0 4.0617,-0.43139 q -0.4495,0.88563 -0.899,1.77125 l 3e-4,10e-4 a 2.4479438,2.5815351 0 0 1 0.9076,4.3434 c -1.8596,1.8239 -3.5588,3.74103 -4.1815,5.00356 -0.5857,1.18772 5.4284,2.61943 6.7812,2.56072 1.3527,-0.0587 2.6171,-0.68554 3.8388,-1.30072 a 2.8400471,2.9950366 0 0 0 0.3063,1.7042 5.1678451,5.4498692 0 0 0 3.958,-0.67479 c -0.054,1.17492 1.3514,1.82371 2.3269,1.49098 -0.487,8.1245 -0.1307,19.53308 0.3371,31.37649 h 1.1608 v -30.90804 a 3.5002641,3.6912835 0 0 0 0.9804,0.34369 c 2.3749,0.44458 5.2408,0.71488 6.7862,-1.23813 1.7786,1.89133 5.038,1.85543 6.8063,-0.0293 -0.174,0.32516 0.092,0.87235 0.4864,0.95857 0.4644,0.1016 0.9161,-0.18939 1.3104,-0.46735 q 2.6772,-1.88753 5.3544,-3.77508 c -2.2025,-1.5658 -5.3312,-3.79009 -8.2177,-5.84211 z"
     fill="#e6e6e6"
     id="path8-3-6-7-5-2-2"
     style="stroke-width:0.161491" />
  <path
     d="m 2944.7182,281.37419 c -1.1821,-0.88415 -1.0664,-2.81871 0.1836,-3.57909 q 0.038,-0.0232 0.075,-0.048 0.094,-0.49936 0.1879,-0.99871 c 0.3688,0.42498 1.094,0.34478 1.3798,-0.15262 a 23.432389,25.999709 0 0 0 -3.8885,-6.46579 2.1000784,2.3301691 0 0 1 -0.03,-3.09095 q 0.01,-0.0118 0.018,-0.0236 a 9.9425338,11.031866 0 0 0 2.5106,-1.40665 c -2.6494,-4.72302 -7.7014,-8.47516 -8.9022,-13.87638 -3.6125,4.30449 -4.018,5.82049 -7.6306,10.125 0,0 -3.4207,3.42484 -4.159,5.26542 0.1814,0.21142 1.8055,0.71882 1.868,1.13454 1.2386,0.11018 3.3844,-1.39618 3.3844,-1.39618 0,0 -4.6836,5.54035 -6.1056,8.95296 -0.1281,0.3073 -0.2497,0.6582 -0.1424,0.97515 0.086,0.25305 0.3929,0.39894 0.5908,0.29841 a 2.5333369,2.8108967 0 0 0 -0.5589,0.88788 2.1760967,2.4145161 0 0 0 2.6846,-0.3 q -0.2971,0.61588 -0.5942,1.23175 l 2e-4,6.9e-4 a 1.6179533,1.7952209 0 0 1 0.5999,3.02044 c -1.2291,1.26835 -2.3522,2.60154 -2.7638,3.47951 -0.3871,0.82595 3.5879,1.82157 4.482,1.78074 0.8941,-0.0408 1.7298,-0.47672 2.5373,-0.90453 a 1.8771115,2.0827733 0 0 0 0.2024,1.18512 3.4156551,3.7898842 0 0 0 2.616,-0.46926 c -0.036,0.81706 0.8932,1.26822 1.538,1.03685 -0.3219,5.64984 -0.086,13.58346 0.2228,21.81947 h 0.7672 v -21.49371 a 2.3134778,2.5669491 0 0 0 0.648,0.23901 c 1.5697,0.30916 3.4639,0.49713 4.4853,-0.86102 1.1755,1.31525 3.3298,1.29029 4.4986,-0.0204 -0.115,0.22612 0.061,0.60664 0.3214,0.6666 0.307,0.0706 0.6055,-0.13171 0.8661,-0.325 q 1.7695,-1.31261 3.539,-2.62522 c -1.4557,-1.08888 -3.5236,-2.63567 -5.4314,-4.06266 z"
     fill="#e6e6e6"
     id="path8-3-6-7-5-5-7"
     style="stroke-width:0.109484" />
  <path
     d="m 4712.9281,255.03976 c -1.7885,-1.27142 -1.6135,-4.05333 0.2778,-5.14675 q 0.058,-0.0334 0.1132,-0.069 0.1421,-0.71807 0.2843,-1.43613 c 0.5579,0.61112 1.6551,0.49578 2.0876,-0.21948 a 35.452922,37.387689 0 0 0 -5.8833,-9.29784 3.1773934,3.3507928 0 0 1 -0.046,-4.4448 q 0.014,-0.0169 0.027,-0.034 a 15.042934,15.863869 0 0 0 3.7984,-2.02276 c -4.0084,-6.79173 -11.652,-12.18733 -13.4688,-19.95431 -5.4657,6.18988 -6.0793,8.3699 -11.545,14.55979 0,0 -5.1755,4.92494 -6.2926,7.5717 0.2745,0.30404 2.7318,1.03367 2.8263,1.63148 1.874,0.15843 5.1206,-2.00772 5.1206,-2.00772 0,0 -7.0863,7.96705 -9.2378,12.87439 -0.1937,0.44191 -0.3777,0.9465 -0.2154,1.40228 0.1296,0.36388 0.5945,0.57368 0.8938,0.42911 a 3.8329083,4.0420811 0 0 0 -0.8455,1.27677 3.2924081,3.4720842 0 0 0 4.0617,-0.43139 q -0.4495,0.88563 -0.899,1.77125 l 3e-4,0.001 a 2.4479438,2.5815351 0 0 1 0.9076,4.3434 c -1.8596,1.8239 -3.5588,3.74103 -4.1815,5.00356 -0.5857,1.18772 5.4284,2.61943 6.7812,2.56072 1.3527,-0.0587 2.6171,-0.68554 3.8388,-1.30072 a 2.8400471,2.9950366 0 0 0 0.3063,1.7042 5.1678451,5.4498692 0 0 0 3.958,-0.67479 c -0.054,1.17492 1.3514,1.82371 2.3269,1.49098 -0.487,8.1245 -0.1307,19.53308 0.3371,31.37649 h 1.1608 v -30.90804 a 3.5002641,3.6912835 0 0 0 0.9804,0.34369 c 2.3749,0.44458 5.2408,0.71488 6.7862,-1.23813 1.7786,1.89133 5.038,1.85543 6.8063,-0.0293 -0.174,0.32516 0.092,0.87235 0.4864,0.95857 0.4644,0.1016 0.9161,-0.18939 1.3104,-0.46735 q 2.6772,-1.88753 5.3544,-3.77508 c -2.2025,-1.5658 -5.3312,-3.79009 -8.2177,-5.84211 z"
     fill="#e6e6e6"
     id="path8-3-6-0"
     style="stroke-width:0.161491" />
  <path
     d="m 4738.477,252.79159 c -1.7885,-1.27142 -1.6135,-4.05333 0.2778,-5.14675 q 0.058,-0.0334 0.1132,-0.069 0.1421,-0.71807 0.2843,-1.43613 c 0.5579,0.61112 1.6551,0.49578 2.0876,-0.21948 a 35.452922,37.387689 0 0 0 -5.8833,-9.29784 3.1773934,3.3507928 0 0 1 -0.046,-4.4448 q 0.014,-0.0169 0.027,-0.034 a 15.042934,15.863869 0 0 0 3.7984,-2.02276 c -4.0084,-6.79173 -11.652,-12.18733 -13.4688,-19.95431 -5.4657,6.18988 -6.0793,8.3699 -11.545,14.55979 0,0 -5.1755,4.92494 -6.2926,7.5717 0.2745,0.30404 2.7318,1.03367 2.8263,1.63148 1.874,0.15843 5.1206,-2.00772 5.1206,-2.00772 0,0 -7.0863,7.96705 -9.2378,12.87439 -0.1937,0.44191 -0.3777,0.9465 -0.2154,1.40228 0.1296,0.36388 0.5945,0.57368 0.8938,0.42911 a 3.8329083,4.0420811 0 0 0 -0.8455,1.27677 3.2924081,3.4720842 0 0 0 4.0617,-0.43139 q -0.4495,0.88563 -0.899,1.77125 l 3e-4,0.001 a 2.4479438,2.5815351 0 0 1 0.9076,4.3434 c -1.8596,1.8239 -3.5588,3.74103 -4.1815,5.00356 -0.5857,1.18772 5.4284,2.61943 6.7812,2.56072 1.3527,-0.0587 2.6171,-0.68554 3.8388,-1.30072 a 2.8400471,2.9950366 0 0 0 0.3063,1.7042 5.1678451,5.4498692 0 0 0 3.958,-0.67479 c -0.054,1.17492 1.3514,1.82371 2.3269,1.49098 -0.487,8.1245 -0.1307,19.53308 0.3371,31.37649 h 1.1608 v -30.90804 a 3.5002641,3.6912835 0 0 0 0.9804,0.34369 c 2.3749,0.44458 5.2408,0.71488 6.7862,-1.23813 1.7786,1.89133 5.038,1.85543 6.8063,-0.0293 -0.174,0.32516 0.092,0.87235 0.4864,0.95857 0.4644,0.1016 0.9161,-0.18939 1.3104,-0.46735 q 2.6772,-1.88753 5.3544,-3.77508 c -2.2025,-1.5658 -5.3312,-3.79009 -8.2177,-5.84211 z"
     fill="#e6e6e6"
     id="path8-3-6-7-9"
     style="stroke-width:0.161491" />
  <path
     d="m 4847.9974,279.58893 c -1.7885,-1.27142 -1.6135,-4.05333 0.2778,-5.14675 q 0.058,-0.0334 0.1132,-0.069 0.1421,-0.71807 0.2843,-1.43613 c 0.5579,0.61112 1.6551,0.49578 2.0876,-0.21948 a 35.452922,37.387689 0 0 0 -5.8833,-9.29784 3.1773934,3.3507928 0 0 1 -0.046,-4.4448 q 0.014,-0.0169 0.027,-0.034 a 15.042934,15.863869 0 0 0 3.7984,-2.02276 c -4.0084,-6.79173 -11.652,-12.18733 -13.4688,-19.95431 -5.4657,6.18988 -6.0793,8.3699 -11.545,14.55979 0,0 -5.1755,4.92494 -6.2926,7.5717 0.2745,0.30404 2.7318,1.03367 2.8263,1.63148 1.874,0.15843 5.1206,-2.00772 5.1206,-2.00772 0,0 -7.0863,7.96705 -9.2378,12.87439 -0.1937,0.44191 -0.3777,0.9465 -0.2154,1.40228 0.1296,0.36388 0.5945,0.57368 0.8938,0.42911 a 3.8329083,4.0420811 0 0 0 -0.8455,1.27677 3.2924081,3.4720842 0 0 0 4.0617,-0.43139 q -0.4495,0.88563 -0.899,1.77125 l 3e-4,0.001 a 2.4479438,2.5815351 0 0 1 0.9076,4.3434 c -1.8596,1.8239 -3.5588,3.74103 -4.1815,5.00356 -0.5857,1.18772 5.4284,2.61943 6.7812,2.56072 1.3527,-0.0587 2.6171,-0.68554 3.8388,-1.30072 a 2.8400471,2.9950366 0 0 0 0.3063,1.7042 5.1678451,5.4498692 0 0 0 3.958,-0.67479 c -0.054,1.17492 1.3514,1.82371 2.3269,1.49098 -0.487,8.1245 -0.1307,19.53308 0.3371,31.37649 h 1.1608 v -30.90804 a 3.5002641,3.6912835 0 0 0 0.9804,0.34369 c 2.3749,0.44458 5.2408,0.71488 6.7862,-1.23813 1.7786,1.89133 5.038,1.85543 6.8063,-0.0293 -0.174,0.32516 0.092,0.87235 0.4864,0.95857 0.4644,0.1016 0.9161,-0.18939 1.3104,-0.46735 q 2.6772,-1.88753 5.3544,-3.77508 c -2.2025,-1.5658 -5.3312,-3.79009 -8.2177,-5.84211 z"
     fill="#e6e6e6"
     id="path8-3-6-7-5-36"
     style="stroke-width:0.161491" />
  <path
     d="m 4935.3542,301.45937 c -1.7885,-1.27142 -1.6135,-4.05333 0.2778,-5.14675 q 0.058,-0.0334 0.1132,-0.069 0.1421,-0.71807 0.2843,-1.43613 c 0.5579,0.61112 1.6551,0.49578 2.0876,-0.21948 a 35.452922,37.387689 0 0 0 -5.8833,-9.29784 3.1773934,3.3507928 0 0 1 -0.046,-4.4448 q 0.014,-0.0169 0.027,-0.034 a 15.042934,15.863869 0 0 0 3.7984,-2.02276 c -4.0084,-6.79173 -11.652,-12.18733 -13.4688,-19.95431 -5.4657,6.18988 -6.0793,8.3699 -11.545,14.55979 0,0 -5.1755,4.92494 -6.2926,7.5717 0.2745,0.30404 2.7318,1.03367 2.8263,1.63148 1.874,0.15843 5.1206,-2.00772 5.1206,-2.00772 0,0 -7.0863,7.96705 -9.2378,12.87439 -0.1937,0.44191 -0.3777,0.9465 -0.2154,1.40228 0.1296,0.36388 0.5945,0.57368 0.8938,0.42911 a 3.8329083,4.0420811 0 0 0 -0.8455,1.27677 3.2924081,3.4720842 0 0 0 4.0617,-0.43139 q -0.4495,0.88563 -0.899,1.77125 l 3e-4,10e-4 a 2.4479438,2.5815351 0 0 1 0.9076,4.3434 c -1.8596,1.8239 -3.5588,3.74103 -4.1815,5.00356 -0.5857,1.18772 5.4284,2.61943 6.7812,2.56072 1.3527,-0.0587 2.6171,-0.68554 3.8388,-1.30072 a 2.8400471,2.9950366 0 0 0 0.3063,1.7042 5.1678451,5.4498692 0 0 0 3.958,-0.67479 c -0.054,1.17492 1.3514,1.82371 2.3269,1.49098 -0.487,8.1245 -0.1307,19.53308 0.3371,31.37649 h 1.1608 v -30.90804 a 3.5002641,3.6912835 0 0 0 0.9804,0.34369 c 2.3749,0.44458 5.2408,0.71488 6.7862,-1.23813 1.7786,1.89133 5.038,1.85543 6.8063,-0.0293 -0.174,0.32516 0.092,0.87235 0.4864,0.95857 0.4644,0.1016 0.9161,-0.18939 1.3104,-0.46735 q 2.6772,-1.88753 5.3544,-3.77508 c -2.2025,-1.5658 -5.3312,-3.79009 -8.2177,-5.84211 z"
     fill="#e6e6e6"
     id="path8-3-6-7-5-2-0"
     style="stroke-width:0.161491" />
  <path
     d="m 4877.8761,295.81642 c -1.1821,-0.88415 -1.0664,-2.81871 0.1836,-3.57909 q 0.038,-0.0232 0.075,-0.048 0.094,-0.49936 0.1879,-0.99871 c 0.3688,0.42498 1.094,0.34478 1.3798,-0.15262 a 23.432389,25.999709 0 0 0 -3.8885,-6.46579 2.1000784,2.3301691 0 0 1 -0.03,-3.09095 q 0.01,-0.0118 0.018,-0.0236 a 9.9425338,11.031866 0 0 0 2.5106,-1.40665 c -2.6494,-4.72302 -7.7014,-8.47516 -8.9022,-13.87638 -3.6125,4.30449 -4.018,5.82049 -7.6306,10.125 0,0 -3.4207,3.42484 -4.159,5.26542 0.1814,0.21142 1.8055,0.71882 1.868,1.13454 1.2386,0.11018 3.3844,-1.39618 3.3844,-1.39618 0,0 -4.6836,5.54035 -6.1056,8.95296 -0.1281,0.3073 -0.2497,0.6582 -0.1424,0.97515 0.086,0.25305 0.3929,0.39894 0.5908,0.29841 a 2.5333369,2.8108967 0 0 0 -0.5589,0.88788 2.1760967,2.4145161 0 0 0 2.6846,-0.3 q -0.2971,0.61588 -0.5942,1.23175 l 2e-4,6.9e-4 a 1.6179533,1.7952209 0 0 1 0.5999,3.02044 c -1.2291,1.26835 -2.3522,2.60154 -2.7638,3.47951 -0.3871,0.82595 3.5879,1.82157 4.482,1.78074 0.8941,-0.0408 1.7298,-0.47672 2.5373,-0.90453 a 1.8771115,2.0827733 0 0 0 0.2024,1.18512 3.4156551,3.7898842 0 0 0 2.616,-0.46926 c -0.036,0.81706 0.8932,1.26822 1.538,1.03685 -0.3219,5.64984 -0.086,13.58346 0.2228,21.81947 h 0.7672 v -21.49371 a 2.3134778,2.5669491 0 0 0 0.648,0.23901 c 1.5697,0.30916 3.4639,0.49713 4.4853,-0.86102 1.1755,1.31525 3.3298,1.29029 4.4986,-0.0204 -0.115,0.22612 0.061,0.60664 0.3214,0.6666 0.307,0.0706 0.6055,-0.13171 0.8661,-0.325 q 1.7695,-1.31261 3.539,-2.62522 c -1.4557,-1.08888 -3.5236,-2.63567 -5.4314,-4.06266 z"
     fill="#e6e6e6"
     id="path8-3-6-7-5-5-62"
     style="stroke-width:0.109484" />
  <path
     d="m 4673.5577,276.16516 c -1.1821,-0.88415 -1.0664,-2.81871 0.1836,-3.57909 q 0.038,-0.0232 0.075,-0.048 0.094,-0.49936 0.1879,-0.99871 c 0.3688,0.42498 1.094,0.34478 1.3798,-0.15262 a 23.432389,25.999709 0 0 0 -3.8885,-6.46579 2.1000784,2.3301691 0 0 1 -0.03,-3.09095 q 0.01,-0.0118 0.018,-0.0236 a 9.9425338,11.031866 0 0 0 2.5106,-1.40665 c -2.6494,-4.72302 -7.7014,-8.47516 -8.9022,-13.87638 -3.6125,4.30449 -4.018,5.82049 -7.6306,10.125 0,0 -3.4207,3.42484 -4.159,5.26542 0.1814,0.21142 1.8055,0.71882 1.868,1.13454 1.2386,0.11018 3.3844,-1.39618 3.3844,-1.39618 0,0 -4.6836,5.54035 -6.1056,8.95296 -0.1281,0.3073 -0.2497,0.6582 -0.1424,0.97515 0.086,0.25305 0.3929,0.39894 0.5908,0.29841 a 2.5333369,2.8108967 0 0 0 -0.5589,0.88788 2.1760967,2.4145161 0 0 0 2.6846,-0.3 q -0.2971,0.61588 -0.5942,1.23175 l 2e-4,6.9e-4 a 1.6179533,1.7952209 0 0 1 0.5999,3.02044 c -1.2291,1.26835 -2.3522,2.60154 -2.7638,3.47951 -0.3871,0.82595 3.5879,1.82157 4.482,1.78074 0.8941,-0.0408 1.7298,-0.47672 2.5373,-0.90453 a 1.8771115,2.0827733 0 0 0 0.2024,1.18512 3.4156551,3.7898842 0 0 0 2.616,-0.46926 c -0.036,0.81706 0.8932,1.26822 1.538,1.03685 -0.3219,5.64984 -0.086,13.58346 0.2228,21.81947 h 0.7672 v -21.49371 a 2.3134778,2.5669491 0 0 0 0.648,0.23901 c 1.5697,0.30916 3.4639,0.49713 4.4853,-0.86102 1.1755,1.31525 3.3298,1.29029 4.4986,-0.0204 -0.115,0.22612 0.061,0.60664 0.3214,0.6666 0.307,0.0706 0.6055,-0.13171 0.8661,-0.325 q 1.7695,-1.31261 3.539,-2.62522 c -1.4557,-1.08888 -3.5236,-2.63567 -5.4314,-4.06266 z"
     fill="#e6e6e6"
     id="path8-3-6-7-5-5-6-6"
     style="stroke-width:0.109484" />
  <path
     d="m 4786.3828,271.39267 c -1.555,-1.10546 -1.4028,-3.52424 0.2416,-4.47494 q 0.05,-0.029 0.098,-0.06 0.1236,-0.62434 0.2472,-1.24867 c 0.4851,0.53135 1.439,0.43106 1.8151,-0.19083 a 30.825204,32.507423 0 0 0 -5.1154,-8.08418 2.7626439,2.9134093 0 0 1 -0.04,-3.86462 q 0.012,-0.0147 0.023,-0.0296 a 13.079359,13.793137 0 0 0 3.3026,-1.75873 c -3.4852,-5.90519 -10.131,-10.5965 -11.7107,-17.34964 -4.7522,5.3819 -5.2857,7.27736 -10.038,12.65928 0,0 -4.4999,4.28208 -5.4712,6.58335 0.2387,0.26436 2.3752,0.89875 2.4574,1.41852 1.6293,0.13775 4.4522,-1.74565 4.4522,-1.74565 0,0 -6.1614,6.9271 -8.032,11.19388 -0.1684,0.38423 -0.3284,0.82296 -0.1873,1.21924 0.1127,0.31638 0.5169,0.4988 0.7771,0.3731 a 3.3325936,3.5144628 0 0 0 -0.7351,1.11011 2.8626456,3.0188683 0 0 0 3.5315,-0.37508 q -0.3908,0.77003 -0.7816,1.54005 l 2e-4,8.7e-4 a 2.1284104,2.2445638 0 0 1 0.7892,3.77645 c -1.6169,1.58582 -3.0943,3.2527 -3.6357,4.35044 -0.5093,1.03268 4.7198,2.27751 5.896,2.22646 1.1761,-0.051 2.2755,-0.59605 3.3377,-1.13093 a 2.4693319,2.6040904 0 0 0 0.2664,1.48174 4.4932793,4.7384904 0 0 0 3.4413,-0.5867 c -0.047,1.02155 1.175,1.58565 2.0232,1.29636 -0.4235,7.06399 -0.1137,16.9834 0.2931,27.28087 h 1.0093 v -26.87357 a 3.0433699,3.2094553 0 0 0 0.8524,0.29883 c 2.0649,0.38654 4.5567,0.62156 5.9004,-1.07652 1.5464,1.64445 4.3803,1.61324 5.9178,-0.0255 -0.1513,0.28271 0.08,0.75848 0.4229,0.83344 0.4038,0.0883 0.7966,-0.16467 1.1394,-0.40634 q 2.3277,-1.64115 4.6555,-3.28232 c -1.915,-1.36141 -4.6353,-3.29536 -7.1451,-5.07953 z"
     fill="#e6e6e6"
     id="path8-3-6-7-5-3-1"
     style="stroke-width:0.140411" />
  <path
     d="m 4975.6765,312.18843 c -1.7885,-1.27142 -1.6135,-4.05333 0.2778,-5.14675 q 0.058,-0.0334 0.1132,-0.069 0.1421,-0.71807 0.2843,-1.43613 c 0.5579,0.61112 1.6551,0.49578 2.0876,-0.21948 a 35.452922,37.387689 0 0 0 -5.8833,-9.29784 3.1773934,3.3507928 0 0 1 -0.046,-4.4448 q 0.014,-0.0169 0.027,-0.034 a 15.042934,15.863869 0 0 0 3.7984,-2.02276 c -4.0084,-6.79173 -11.652,-12.18733 -13.4688,-19.95431 -5.4657,6.18988 -6.0793,8.3699 -11.545,14.55979 0,0 -5.1755,4.92494 -6.2926,7.5717 0.2745,0.30404 2.7318,1.03367 2.8263,1.63148 1.874,0.15843 5.1206,-2.00772 5.1206,-2.00772 0,0 -7.0863,7.96705 -9.2378,12.87439 -0.1937,0.44191 -0.3777,0.9465 -0.2154,1.40228 0.1296,0.36388 0.5945,0.57368 0.8938,0.42911 a 3.8329083,4.0420811 0 0 0 -0.8455,1.27677 3.2924081,3.4720842 0 0 0 4.0617,-0.43139 q -0.4495,0.88563 -0.899,1.77125 l 3e-4,10e-4 a 2.4479438,2.5815351 0 0 1 0.9076,4.3434 c -1.8596,1.8239 -3.5588,3.74103 -4.1815,5.00356 -0.5857,1.18772 5.4284,2.61943 6.7812,2.56072 1.3527,-0.0587 2.6171,-0.68554 3.8388,-1.30072 a 2.8400471,2.9950366 0 0 0 0.3063,1.7042 5.1678451,5.4498692 0 0 0 3.958,-0.67479 c -0.054,1.17492 1.3514,1.82371 2.3269,1.49098 -0.487,8.1245 -0.1307,19.53308 0.3371,31.37649 h 1.1608 v -30.90804 a 3.5002641,3.6912835 0 0 0 0.9804,0.34369 c 2.3749,0.44458 5.2408,0.71488 6.7862,-1.23813 1.7786,1.89133 5.038,1.85543 6.8063,-0.0293 -0.174,0.32516 0.092,0.87235 0.4864,0.95857 0.4644,0.1016 0.9161,-0.18939 1.3104,-0.46735 q 2.6772,-1.88753 5.3544,-3.77508 c -2.2025,-1.5658 -5.3312,-3.79009 -8.2177,-5.84211 z"
     fill="#e6e6e6"
     id="path8-3-6-0-9"
     style="stroke-width:0.161491" />
  <path
     d="m 5001.2254,309.94026 c -1.7885,-1.27142 -1.6135,-4.05333 0.2778,-5.14675 q 0.058,-0.0334 0.1132,-0.069 0.1421,-0.71807 0.2843,-1.43613 c 0.5579,0.61112 1.6551,0.49578 2.0876,-0.21948 a 35.452922,37.387689 0 0 0 -5.8833,-9.29784 3.1773934,3.3507928 0 0 1 -0.046,-4.4448 q 0.014,-0.0169 0.027,-0.034 a 15.042934,15.863869 0 0 0 3.7984,-2.02276 c -4.0084,-6.79173 -11.652,-12.18733 -13.4688,-19.95431 -5.4657,6.18988 -6.0793,8.3699 -11.545,14.55979 0,0 -5.1755,4.92494 -6.2926,7.5717 0.2745,0.30404 2.7318,1.03367 2.8263,1.63148 1.874,0.15843 5.1206,-2.00772 5.1206,-2.00772 0,0 -7.0863,7.96705 -9.2378,12.87439 -0.1937,0.44191 -0.3777,0.9465 -0.2154,1.40228 0.1296,0.36388 0.5945,0.57368 0.8938,0.42911 a 3.8329083,4.0420811 0 0 0 -0.8455,1.27677 3.2924081,3.4720842 0 0 0 4.0617,-0.43139 q -0.4495,0.88563 -0.899,1.77125 l 3e-4,10e-4 a 2.4479438,2.5815351 0 0 1 0.9076,4.3434 c -1.8596,1.8239 -3.5588,3.74103 -4.1815,5.00356 -0.5857,1.18772 5.4284,2.61943 6.7812,2.56072 1.3527,-0.0587 2.6171,-0.68554 3.8388,-1.30072 a 2.8400471,2.9950366 0 0 0 0.3063,1.7042 5.1678451,5.4498692 0 0 0 3.958,-0.67479 c -0.054,1.17492 1.3514,1.82371 2.3269,1.49098 -0.487,8.1245 -0.1307,19.53308 0.3371,31.37649 h 1.1608 v -30.90804 a 3.5002641,3.6912835 0 0 0 0.9804,0.34369 c 2.3749,0.44458 5.2408,0.71488 6.7862,-1.23813 1.7786,1.89133 5.038,1.85543 6.8063,-0.0293 -0.174,0.32516 0.092,0.87235 0.4864,0.95857 0.4644,0.1016 0.9161,-0.18939 1.3104,-0.46735 q 2.6772,-1.88753 5.3544,-3.77508 c -2.2025,-1.5658 -5.3312,-3.79009 -8.2177,-5.84211 z"
     fill="#e6e6e6"
     id="path8-3-6-7-9-7"
     style="stroke-width:0.161491" />
  <path
     d="m 5049.1312,328.54134 c -1.555,-1.10546 -1.4028,-3.52424 0.2416,-4.47494 q 0.05,-0.029 0.098,-0.06 0.1236,-0.62434 0.2472,-1.24867 c 0.4851,0.53135 1.439,0.43106 1.8151,-0.19083 a 30.825204,32.507423 0 0 0 -5.1154,-8.08418 2.7626439,2.9134093 0 0 1 -0.04,-3.86462 q 0.012,-0.0147 0.023,-0.0296 a 13.079359,13.793137 0 0 0 3.3026,-1.75873 c -3.4852,-5.90519 -10.131,-10.5965 -11.7107,-17.34964 -4.7522,5.3819 -5.2857,7.27736 -10.038,12.65928 0,0 -4.4999,4.28208 -5.4712,6.58335 0.2387,0.26436 2.3752,0.89875 2.4574,1.41852 1.6293,0.13775 4.4522,-1.74565 4.4522,-1.74565 0,0 -6.1614,6.9271 -8.032,11.19388 -0.1684,0.38423 -0.3284,0.82296 -0.1873,1.21924 0.1127,0.31638 0.5169,0.4988 0.7771,0.3731 a 3.3325936,3.5144628 0 0 0 -0.7351,1.11011 2.8626456,3.0188683 0 0 0 3.5315,-0.37508 q -0.3908,0.77003 -0.7816,1.54005 l 2e-4,8.7e-4 a 2.1284104,2.2445638 0 0 1 0.7892,3.77645 c -1.6169,1.58582 -3.0943,3.2527 -3.6357,4.35044 -0.5093,1.03268 4.7198,2.27751 5.896,2.22646 1.1761,-0.051 2.2755,-0.59605 3.3377,-1.13093 a 2.4693319,2.6040904 0 0 0 0.2664,1.48174 4.4932793,4.7384904 0 0 0 3.4413,-0.5867 c -0.047,1.02155 1.175,1.58565 2.0232,1.29636 -0.4235,7.06399 -0.1137,16.9834 0.2931,27.28087 h 1.0093 v -26.87357 a 3.0433699,3.2094553 0 0 0 0.8524,0.29883 c 2.0649,0.38654 4.5567,0.62156 5.9004,-1.07652 1.5464,1.64445 4.3803,1.61324 5.9178,-0.0255 -0.1513,0.28271 0.08,0.75848 0.4229,0.83344 0.4038,0.0883 0.7966,-0.16467 1.1394,-0.40634 q 2.3277,-1.64115 4.6555,-3.28232 c -1.915,-1.36141 -4.6353,-3.29536 -7.1451,-5.07953 z"
     fill="#e6e6e6"
     id="path8-3-6-7-5-3-1-3"
     style="stroke-width:0.140411" />
  <path
     d="m 5805.6261,614.60586 c -111.938,50.33699 -579.26,-10.28041 -648.4633,-9.42596 -113.7987,4.92275 -185.0258,3.11666 -381.7388,10.42881 -247.29,-52.06628 -598.9324,23.61852 -822.9492,-32.8828 -15.4689,-40.67459 -266.0286,13.7052 -266.7641,-29.40866 177.7408,-63.28098 277.8,-154.95676 329.1019,-136.21518 49.1045,18.0233 89.8235,-49.85589 140.2887,-45.52659 74.3892,6.38513 152.4337,63.37715 215.8018,24.63198 63.368,-38.74516 124.4682,-84.11822 194.7716,-105.40239 94.2908,-28.54188 196.9978,-11.41855 296.5157,5.84758 852.1236,274.54872 683.1022,26.64521 943.4357,317.95321 z"
     fill="#f2f2f2"
     id="path6-8"
     style="stroke-width:1.3206"
     sodipodi:nodetypes="cccccccsccc" />
  <path
     d="m 7512.3087,629.64595 c -111.938,50.33699 -579.26,-10.28041 -648.4633,-9.42596 -113.7987,4.92275 -185.0258,3.11666 -381.7388,10.42881 -247.29,-52.06628 -598.9325,23.61852 -822.9492,-32.8828 -15.4689,-40.67459 -266.0287,13.7052 -266.7642,-29.40866 177.7409,-63.28098 277.8,-154.95676 329.102,-136.21518 49.1045,18.0233 89.8235,-49.85589 140.2887,-45.52659 74.3892,6.38513 152.4337,63.37715 215.8018,24.63198 63.368,-38.74516 124.4682,-84.11822 194.7716,-105.40239 94.2908,-28.54188 196.9978,-11.41855 296.5157,5.84758 852.1236,274.54872 888.8608,29.42593 943.4357,317.95321 z"
     fill="#f2f2f2"
     id="path6-9-7"
     style="stroke-width:1.3206"
     sodipodi:nodetypes="cccccccsccc" />
  <path
     d="m 7544.5227,661.36728 c -21.3787,73.00047 -2351.5907,-10.1548 -3778.7491,7.57392 -45.8799,-1.43 -355.6499,19.47254 -353.9524,-25.31198 15.209,-92.46844 -260.5098,-119.15462 140.4324,-168.29802 35.88,-3.42 71.19,9.72 103.82,25.01 32.64,15.28 64.69,33.14 100.03,40.19 52.08,10.39 105.84,-3.74 155.77,-21.83 49.93,-18.09 99.08,-40.43 151.74,-47.26 70.63,-9.17 141.5,10.24 210.08,29.46 73.05,20.47 322.0142,18.85912 395.0708,39.33579 818.6095,-50.55746 1456.9831,14.43349 1861.3826,-46.58308 401.9322,-60.64429 1015.3489,53.30855 1014.3757,167.71337 z"
     fill="#e6e6e6"
     id="path4-9"
     sodipodi:nodetypes="ccccccscccsc" />
  <path
     d="m 3768.6327,257.02682 c -11.3726,-7.6666 -10.2601,-24.44139 1.7666,-31.03466 q 0.3671,-0.20124 0.7199,-0.41616 0.9041,-4.32993 1.8082,-8.65978 c 3.5479,3.685 10.5244,2.98952 13.2749,-1.32343 a 225.44564,225.44564 0 0 0 -37.4117,-56.06548 20.20509,20.20509 0 0 1 -0.2905,-26.8019 q 0.087,-0.10167 0.173,-0.20488 a 95.65823,95.65823 0 0 0 24.1542,-12.19715 C 3747.3374,79.369628 3698.7318,46.834478 3687.1787,0 c -34.7567,37.324628 -38.6584,50.470048 -73.4152,87.794678 0,0 -32.9106,29.697182 -40.0141,45.656932 1.7454,1.83339 17.3714,6.233 17.9721,9.83777 11.9169,0.95532 32.5621,-12.10645 32.5621,-12.10645 0,0 -45.0617,48.04087 -58.743,77.63181 -1.232,2.6647 -2.4021,5.70738 -1.37,8.4557 0.824,2.19417 3.78,3.45928 5.6839,2.5875 a 24.37352,24.37352 0 0 0 -5.3766,7.69885 20.93647,20.93647 0 0 0 25.828,-2.60127 q -2.8584,5.34033 -5.7168,10.68053 v 0.008 a 15.56651,15.56651 0 0 1 5.7712,26.19045 c -11.8252,10.998 -22.6304,22.55822 -26.5897,30.17117 -3.7246,7.16188 34.5192,15.795 43.1212,15.441 8.602,-0.354 16.6424,-4.13372 24.4116,-7.84324 a 18.0599,18.0599 0 0 0 1.9475,10.27618 32.8624,32.8624 0 0 0 25.1687,-4.06893 c -0.3428,7.08471 8.594,10.99688 14.797,8.99055 -3.0968,48.99028 -0.8315,117.78337 2.1437,189.19844 h 7.3814 V 317.62596 a 22.25823,22.25823 0 0 0 6.2344,2.07242 c 15.102,2.68077 33.3263,4.31066 43.1532,-7.46587 11.3103,11.40463 32.0369,11.18815 43.2818,-0.17664 -1.1067,1.9607 0.5872,5.26025 3.0929,5.78012 2.953,0.61266 5.8258,-1.142 8.3329,-2.81807 q 17.0244,-11.38173 34.0489,-22.7635 c -14.0058,-9.44167 -33.9017,-22.85404 -52.2565,-35.2276 z"
     fill="#e6e6e6"
     id="path8-2" />
  <path
     d="m 3996.3744,370.00912 c -5.3338,-3.59569 -4.812,-11.4632 0.8286,-14.55549 q 0.1721,-0.0944 0.3376,-0.19518 0.424,-2.03077 0.8481,-4.06151 c 1.6639,1.7283 4.936,1.40211 6.226,-0.6207 a 105.73574,105.73574 0 0 0 -17.5464,-26.29514 9.4763427,9.4763427 0 0 1 -0.1362,-12.5703 q 0.041,-0.0477 0.081,-0.0961 a 44.864446,44.864446 0 0 0 11.3285,-5.72055 c -11.9549,-19.20763 -34.7514,-34.46686 -40.1698,-56.43259 -16.3012,17.50554 -18.1311,23.67084 -34.4323,41.17638 0,0 -15.4354,13.9282 -18.767,21.41345 0.8186,0.85987 8.1474,2.92332 8.4291,4.61399 5.5891,0.44805 15.2719,-5.67802 15.2719,-5.67802 0,0 -21.1343,22.53154 -27.551,36.40992 -0.5778,1.24976 -1.1266,2.6768 -0.6425,3.96578 0.3865,1.02909 1.7729,1.62243 2.6658,1.21356 a 11.431368,11.431368 0 0 0 -2.5217,3.61082 9.8193656,9.8193656 0 0 0 12.1136,-1.22001 q -1.3406,2.50465 -2.6812,5.00925 v 0.004 a 7.300813,7.300813 0 0 1 2.7067,12.28352 c -5.5461,5.15815 -10.6138,10.57998 -12.4708,14.15051 -1.7469,3.35898 16.1898,7.40798 20.2242,7.24195 4.0344,-0.16603 7.8054,-1.93875 11.4492,-3.67854 a 8.4702321,8.4702321 0 0 0 0.9134,4.81961 15.412719,15.412719 0 0 0 11.8043,-1.90836 c -0.1607,3.32278 4.0307,5.15762 6.94,4.21664 -1.4525,22.97681 -0.39,55.2413 1.0053,88.73552 h 3.462 v -87.4107 a 10.439281,10.439281 0 0 0 2.9239,0.97198 c 7.083,1.2573 15.6303,2.02173 20.2393,-3.50155 5.3046,5.34886 15.0255,5.24732 20.2995,-0.0829 -0.5191,0.91958 0.2754,2.4671 1.4505,2.71092 1.385,0.28734 2.7324,-0.53561 3.9082,-1.3217 q 7.9846,-5.33811 15.9692,-10.67625 c -6.5688,-4.42822 -15.9001,-10.71872 -24.5087,-16.52202 z"
     fill="#e6e6e6"
     id="path8-3-0"
     style="stroke-width:0.469008" />
  <path
     d="m 5649.7606,502.98287 a 3.61324,3.61324 0 0 0 2.6187,-6.26263 c -0.091,-0.36212 -0.1565,-0.62217 -0.2476,-0.98429 q 0.049,-0.11823 0.098,-0.23628 a 9.70311,9.70311 0 0 1 17.8985,0.0665 c 2.9274,7.05051 6.6544,14.11307 7.5721,21.56779 a 28.70521,28.70521 0 0 1 -0.5039,9.87235 115.086,115.086 0 0 0 10.469,-47.79893 111.07978,111.07978 0 0 0 -0.689,-12.392 q -0.5708,-5.05968 -1.5838,-10.04731 a 116.41946,116.41946 0 0 0 -23.087,-49.34151 30.98262,30.98262 0 0 1 -12.8855,-13.36893 23.63324,23.63324 0 0 1 -2.1494,-6.45821 c 0.6273,0.0823 1.2649,0.13369 1.8922,0.17479 0.1954,0.0102 0.4011,0.0206 0.5965,0.0309 l 0.074,0.003 a 3.57989,3.57989 0 0 0 2.9401,-5.83225 q -0.4063,-0.5 -0.813,-0.99948 c -0.4114,-0.51422 -0.833,-1.01813 -1.2443,-1.53227 a 1.78213,1.78213 0 0 1 -0.1337,-0.15433 c -0.4731,-0.58618 -0.9461,-1.16206 -1.4192,-1.74824 a 10.35167,10.35167 0 0 1 3.3936,-3.28044 c 4.7409,-2.77662 11.2814,-0.85358 14.7059,3.43476 3.4348,4.28826 4.0826,10.30438 2.8897,15.66218 a 41.48487,41.48487 0 0 1 -5.7384,12.793 c 0.2572,0.32912 0.5246,0.64792 0.7816,0.977 a 117.172,117.172 0 0 1 12.2298,19.37481 48.70925,48.70925 0 0 1 2.908,-22.62446 c 2.7834,-6.71479 8.0006,-12.37 12.595,-18.175 5.5185,-6.9726 16.8348,-3.92959 17.8071,4.90927 q 0.014,0.12837 0.027,0.25666 -1.0236,0.57749 -2.004,1.22585 a 4.90111,4.90111 0 0 0 1.9761,8.91909 l 0.1,0.0154 a 48.76572,48.76572 0 0 1 -1.2854,7.29124 50.20985,50.20985 0 0 1 -24.9999,31.46836 c -0.4011,0.20566 -0.7919,0.41132 -1.193,0.60674 a 119.59737,119.59737 0 0 1 6.4377,30.296 113.433,113.433 0 0 1 -0.082,18.31542 l 0.031,-0.216 a 29.974,29.974 0 0 1 10.2324,-17.30759 c 7.8744,-6.46853 18.9994,-8.8505 27.4944,-14.04994 a 5.62529,5.62529 0 0 1 8.6157,5.47252 q -0.017,0.11351 -0.035,0.227 a 32.92361,32.92361 0 0 0 -3.6918,1.779 q -1.0236,0.57761 -2.0039,1.22585 a 4.90115,4.90115 0 0 0 1.9759,8.91916 l 0.1,0.0154 c 0.072,0.0103 0.1337,0.0206 0.2056,0.031 a 48.808,48.808 0 0 1 -8.9776,14.05786 50.25439,50.25439 0 0 1 -36.4457,15.99129 h -0.01 a 119.56321,119.56321 0 0 1 -8.0316,23.447 h -28.6917 c -0.1029,-0.3188 -0.1954,-0.64791 -0.288,-0.96671 a 32.59917,32.59917 0 0 0 7.9391,-0.473 c -2.1287,-2.61214 -4.2574,-5.24483 -6.3862,-7.85688 a 1.783,1.783 0 0 1 -0.1337,-0.15425 c -1.0798,-1.33685 -2.1699,-2.66347 -3.2497,-4.00032 l -5e-4,-0.002 a 47.75114,47.75114 0 0 1 1.3991,-12.16411 z"
     fill="#e6e6e6"
     id="path20-7" />
  <path
     d="m 4064.4737,421.83754 a 3.61324,3.61324 0 0 0 2.6186,-6.26263 c -0.091,-0.36212 -0.1565,-0.62217 -0.2476,-0.98429 q 0.049,-0.11823 0.098,-0.23628 a 9.70311,9.70311 0 0 1 17.8985,0.0665 c 2.9274,7.05051 6.6545,14.11307 7.5722,21.56779 a 28.70521,28.70521 0 0 1 -0.5039,9.87235 115.086,115.086 0 0 0 10.4689,-47.79893 111.07978,111.07978 0 0 0 -0.689,-12.392 q -0.5707,-5.05968 -1.5837,-10.04731 a 116.41946,116.41946 0 0 0 -23.087,-49.34151 30.98262,30.98262 0 0 1 -12.8856,-13.36893 23.63324,23.63324 0 0 1 -2.1493,-6.45821 c 0.6273,0.0823 1.2649,0.13369 1.8922,0.17479 0.1954,0.0102 0.401,0.0205 0.5965,0.0309 l 0.074,0.003 a 3.57989,3.57989 0 0 0 2.9401,-5.83225 q -0.4063,-0.5 -0.813,-0.99948 c -0.4114,-0.51422 -0.833,-1.01813 -1.2444,-1.53227 a 1.78213,1.78213 0 0 1 -0.1337,-0.15433 c -0.4731,-0.58618 -0.9461,-1.16206 -1.4192,-1.74824 a 10.35167,10.35167 0 0 1 3.3937,-3.28044 c 4.7408,-2.77662 11.2813,-0.85358 14.7058,3.43476 3.4348,4.28826 4.0826,10.30438 2.8898,15.66218 a 41.48487,41.48487 0 0 1 -5.7384,12.793 c 0.2571,0.32912 0.5245,0.64792 0.7816,0.977 a 117.172,117.172 0 0 1 12.2297,19.37481 48.70925,48.70925 0 0 1 2.908,-22.62446 c 2.7835,-6.71479 8.0006,-12.37 12.595,-18.175 5.5186,-6.9726 16.8349,-3.92959 17.8071,4.90927 q 0.014,0.12837 0.028,0.25666 -1.0236,0.57748 -2.004,1.22585 a 4.90111,4.90111 0 0 0 1.976,8.91909 l 0.1,0.0154 a 48.76572,48.76572 0 0 1 -1.2854,7.29124 50.20985,50.20985 0 0 1 -25,31.46843 c -0.401,0.20566 -0.7919,0.41132 -1.193,0.60674 a 119.59737,119.59737 0 0 1 6.4377,30.296 113.433,113.433 0 0 1 -0.082,18.31542 l 0.031,-0.216 a 29.974,29.974 0 0 1 10.2324,-17.30759 c 7.8744,-6.46853 18.9994,-8.8505 27.4945,-14.04994 a 5.62529,5.62529 0 0 1 8.6157,5.47252 q -0.017,0.11351 -0.035,0.227 a 32.92361,32.92361 0 0 0 -3.6918,1.779 q -1.0237,0.57761 -2.004,1.22585 a 4.90115,4.90115 0 0 0 1.976,8.91916 l 0.1,0.0154 c 0.072,0.0103 0.1337,0.0206 0.2055,0.031 a 48.808,48.808 0 0 1 -8.9776,14.05786 50.25439,50.25439 0 0 1 -36.4458,15.99129 h -0.01 a 119.56321,119.56321 0 0 1 -8.0316,23.447 h -28.6917 c -0.1029,-0.3188 -0.1954,-0.64791 -0.288,-0.96671 a 32.59917,32.59917 0 0 0 7.9392,-0.473 c -2.1288,-2.61214 -4.2575,-5.24483 -6.3863,-7.85688 a 1.783,1.783 0 0 1 -0.1337,-0.15425 c -1.0797,-1.33685 -2.1698,-2.66347 -3.2496,-4.00032 l -6e-4,-0.002 a 47.75114,47.75114 0 0 1 1.3992,-12.16411 z"
     fill="#e6e6e6"
     id="path22-5" />
  <polygon
     points="318.821,701.498 319.592,701.62 319.901,699.669 "
     fill="#2f2e41"
     id="polygon34-9"
     transform="translate(3487.5034,-91.180124)" />
  <path
     d="m 6326.0019,281.30899 c -1.7885,-1.27142 -1.6135,-4.05333 0.2778,-5.14675 q 0.058,-0.0334 0.1132,-0.069 0.1421,-0.71807 0.2843,-1.43613 c 0.5579,0.61112 1.6551,0.49578 2.0876,-0.21948 a 35.452922,37.387689 0 0 0 -5.8833,-9.29784 3.1773934,3.3507928 0 0 1 -0.046,-4.4448 q 0.014,-0.0169 0.027,-0.034 a 15.042934,15.863869 0 0 0 3.7984,-2.02276 c -4.0084,-6.79173 -11.652,-12.18733 -13.4688,-19.95431 -5.4657,6.18988 -6.0793,8.3699 -11.545,14.55979 0,0 -5.1755,4.92494 -6.2926,7.5717 0.2745,0.30404 2.7318,1.03367 2.8263,1.63148 1.874,0.15843 5.1206,-2.00772 5.1206,-2.00772 0,0 -7.0863,7.96705 -9.2378,12.87439 -0.1937,0.44191 -0.3777,0.9465 -0.2154,1.40228 0.1296,0.36388 0.5945,0.57368 0.8938,0.42911 a 3.8329083,4.0420811 0 0 0 -0.8455,1.27677 3.2924081,3.4720842 0 0 0 4.0617,-0.43139 q -0.4495,0.88563 -0.899,1.77125 l 3e-4,0.001 a 2.4479438,2.5815351 0 0 1 0.9076,4.3434 c -1.8596,1.8239 -3.5588,3.74103 -4.1815,5.00356 -0.5857,1.18772 5.4284,2.61943 6.7812,2.56072 1.3527,-0.0587 2.6171,-0.68554 3.8388,-1.30072 a 2.8400471,2.9950366 0 0 0 0.3063,1.7042 5.1678451,5.4498692 0 0 0 3.958,-0.67479 c -0.054,1.17492 1.3514,1.82371 2.3269,1.49098 -0.487,8.1245 -0.1307,19.53308 0.3371,31.37649 h 1.1608 v -30.90804 a 3.5002641,3.6912835 0 0 0 0.9804,0.34369 c 2.3749,0.44458 5.2408,0.71488 6.7862,-1.23813 1.7786,1.89133 5.038,1.85543 6.8063,-0.0293 -0.174,0.32516 0.092,0.87235 0.4864,0.95857 0.4644,0.1016 0.9161,-0.18939 1.3104,-0.46735 q 2.6772,-1.88753 5.3544,-3.77508 c -2.2025,-1.5658 -5.3312,-3.79009 -8.2177,-5.84211 z"
     fill="#e6e6e6"
     id="path8-3-6-7-5-2-2-2"
     style="stroke-width:0.161491" />
  <path
     d="m 6427.4835,273.45649 c -1.1821,-0.88415 -1.0664,-2.81871 0.1836,-3.57909 q 0.038,-0.0232 0.075,-0.048 0.094,-0.49936 0.1879,-0.99871 c 0.3688,0.42498 1.094,0.34478 1.3798,-0.15262 a 23.432389,25.999709 0 0 0 -3.8885,-6.46579 2.1000784,2.3301691 0 0 1 -0.03,-3.09095 q 0.01,-0.0118 0.018,-0.0236 a 9.9425338,11.031866 0 0 0 2.5106,-1.40665 c -2.6494,-4.72302 -7.7014,-8.47516 -8.9022,-13.87638 -3.6125,4.30449 -4.018,5.82049 -7.6306,10.125 0,0 -3.4207,3.42484 -4.159,5.26542 0.1814,0.21142 1.8055,0.71882 1.868,1.13454 1.2386,0.11018 3.3844,-1.39618 3.3844,-1.39618 0,0 -4.6836,5.54035 -6.1056,8.95296 -0.1281,0.3073 -0.2497,0.6582 -0.1424,0.97515 0.086,0.25305 0.3929,0.39894 0.5908,0.29841 a 2.5333369,2.8108967 0 0 0 -0.5589,0.88788 2.1760967,2.4145161 0 0 0 2.6846,-0.3 q -0.2971,0.61588 -0.5942,1.23175 l 2e-4,6.9e-4 a 1.6179533,1.7952209 0 0 1 0.5999,3.02044 c -1.2291,1.26835 -2.3522,2.60154 -2.7638,3.47951 -0.3871,0.82595 3.5879,1.82157 4.482,1.78074 0.8941,-0.0408 1.7298,-0.47672 2.5373,-0.90453 a 1.8771115,2.0827733 0 0 0 0.2024,1.18512 3.4156551,3.7898842 0 0 0 2.616,-0.46926 c -0.036,0.81706 0.8932,1.26822 1.538,1.03685 -0.3219,5.64984 -0.086,13.58346 0.2228,21.81947 h 0.7672 v -21.49371 a 2.3134778,2.5669491 0 0 0 0.648,0.23901 c 1.5697,0.30916 3.4639,0.49713 4.4853,-0.86102 1.1755,1.31525 3.3298,1.29029 4.4986,-0.0204 -0.115,0.22612 0.061,0.60664 0.3214,0.6666 0.307,0.0706 0.6055,-0.13171 0.8661,-0.325 q 1.7695,-1.31261 3.539,-2.62522 c -1.4557,-1.08888 -3.5236,-2.63567 -5.4314,-4.06266 z"
     fill="#e6e6e6"
     id="path8-3-6-7-5-5-7-8"
     style="stroke-width:0.109484" />
</svg>
