<?xml version="1.0" encoding="UTF-8" standalone="no"?>
<svg
   data-name="Layer 1"
   width="859.11298"
   height="446.07938"
   viewBox="0 0 859.11298 446.07936"
   version="1.1"
   id="svg37"
   sodipodi:docname="cloud.svg"
   inkscape:version="1.1.2 (0a00cf5339, 2022-02-04)"
   xmlns:inkscape="http://www.inkscape.org/namespaces/inkscape"
   xmlns:sodipodi="http://sodipodi.sourceforge.net/DTD/sodipodi-0.dtd"
   xmlns="http://www.w3.org/2000/svg"
   xmlns:svg="http://www.w3.org/2000/svg">
  <defs
     id="defs41" />
  <sodipodi:namedview
     id="namedview39"
     pagecolor="#ffffff"
     bordercolor="#666666"
     borderopacity="1.0"
     inkscape:pageshadow="2"
     inkscape:pageopacity="0.0"
     inkscape:pagecheckerboard="0"
     showgrid="false"
     fit-margin-top="0"
     fit-margin-left="0"
     fit-margin-right="0"
     fit-margin-bottom="0"
     inkscape:zoom="0.61800645"
     inkscape:cx="529.92974"
     inkscape:cy="337.37512"
     inkscape:window-width="1920"
     inkscape:window-height="1016"
     inkscape:window-x="0"
     inkscape:window-y="0"
     inkscape:window-maximized="1"
     inkscape:current-layer="svg37" />
  <path
     id="bf948e58-f613-467a-9468-983dc892a127-175"
     data-name="Path 449"
     d="m 795.65952,399.63738 c -10.593,-0.44 -20.244,-4.715 -24.61,-11.338 q -0.30606,-0.465 -0.577,-0.943 c -1.594,-2.822 -2.092,-6.066 -0.349,-8.847 1.743,-2.781 6.1,-4.893 10.468,-4.454 4.368,0.439 7.785,3.926 5.976,6.686 -0.4,-5.578 -0.735,-11.439 3.762,-16.294 a 16.43578,16.43578 0 0 1 9.207,-4.758 c 9.062,-1.594 15.07794,3.53 16.283,8.7 0.889,3.819 -0.339,7.7 -1.562,11.479 3.769,-4.457 12.73205,-6.44 19.59998,-4.335 6.868,2.105 10.673,8 8.328,12.9 -2.7629,5.764 -11.974,8.743 -20.52998,10.318 -7.06704,1.30098 -17.66103,1.23201 -25.996,0.886 z"
     fill="#f2f2f2" />
  <path
     id="b42aec13-b3c1-4211-a06e-06d70154504c-176"
     data-name="Path 538"
     d="m 699.4691,398.94546 c 21.57078,-0.93578 41.22334,-10.02775 50.1119,-24.11339 q 0.62527,-0.98896 1.17496,-2.00555 c 3.2459,-6.00177 4.25999,-12.90103 0.71067,-18.8156 -3.54931,-5.91456 -12.42157,-10.40631 -21.31624,-9.47266 -8.89466,0.93366 -15.85481,8.34973 -12.16907,14.21963 0.81453,-11.86316 1.4967,-24.3282 -7.66065,-34.6537 a 33.469247,34.955932 0 0 0 -18.74652,-10.1192 c -18.45317,-3.39008 -30.7037,7.50752 -33.15747,18.50296 -1.81029,8.12216 0.69032,16.37618 3.18074,24.41326 -7.6749,-9.47904 -25.92648,-13.69644 -39.91195,-9.21957 -13.98547,4.47686 -21.73572,17.01421 -16.95851,27.43541 5.62637,12.25874 24.38295,18.59441 41.80574,21.94408 14.39092,2.7669 35.96174,2.62021 52.9364,1.88433 z"
     fill="#f2f2f2"
     style="stroke-width:2.08106" />
  <path
     style="fill:#fff6d5;stroke-width:1.61811"
     d="M 132.9881,400.72788 C 67.057231,387.45967 20.538478,326.10703 25.11741,258.4594 27.472367,223.66806 41.979185,192.9329 67.477821,168.71169 94.927131,142.63754 126.59832,131.30678 172.03026,131.30678 h 15.66452 l 5.20704,-9.30411 c 22.70876,-40.576646 59.22791,-69.039726 104.84923,-81.719636 10.46256,-2.90795 16.75434,-3.44793 39.92747,-3.42672 25.23635,0.0231 28.71033,0.38827 42.07076,4.4223 47.32643,14.28971 82.99486,44.2285 104.46777,87.686456 8.09267,16.37836 14.87627,39.51178 16.87039,57.53138 l 1.00412,9.07364 15.6889,0.89962 c 29.98957,1.71964 51.49868,11.70518 71.98009,33.41656 32.39105,34.33621 36.68256,86.09661 10.51887,126.86919 -3.77231,5.87863 -7.06961,8.74235 -13.26184,11.51799 -9.04207,4.05304 -14.41431,9.05582 -16.97061,15.8035 -2.09286,5.52438 -13.89683,11.69004 -30.51918,15.94133 -11.78105,3.01307 -19.42673,3.12462 -204.13074,2.97827 -151.12878,-0.11974 -194.12548,-0.60166 -202.40895,-2.26867 z"
     id="path1451" />
  <path
     style="fill:#fff6d5;stroke-width:1.61811"
     d="m 649.7555,405.33695 c -19.25067,-2.75285 -37.4392,-10.65174 -43.08364,-18.71031 -1.99221,-2.84428 -1.3406,-3.72015 7.62475,-10.24888 5.39172,-3.92635 12.40517,-10.31428 15.58546,-14.1954 5.51773,-6.73366 6.0823,-7.00921 12.33712,-6.02139 3.60513,0.56935 9.39507,2.90663 12.86654,5.19394 5.37623,3.54234 6.13118,3.71172 5.09348,1.14273 -0.67005,-1.65881 -1.55424,-7.38491 -1.96488,-12.72466 -0.60492,-7.86624 -0.11575,-10.7094 2.57773,-14.98227 5.08424,-8.06548 12.30388,-11.70337 23.24018,-11.71043 17.39503,-0.0112 28.73577,9.17885 32.03766,25.96204 l 1.91142,9.71557 4.05071,-2.65413 c 2.89094,-1.89422 6.32456,-2.43565 11.99253,-1.89103 14.83082,1.42506 21.87613,13.95557 15.15465,26.95348 -5.78523,11.1874 -23.15352,21.40996 -41.34436,24.33429 -12.47532,2.00551 -43.52247,1.91808 -58.07935,-0.16355 z"
     id="path1638" />
  <path
     style="fill:#fff6d5;stroke-width:1.61811"
     d="m 782.35429,395.81993 c -8.6878,-3.98946 -12.50102,-8.551 -11.85255,-14.17854 0.63804,-5.53708 7.74013,-8.88076 12.52113,-5.89497 2.57857,1.61034 3.17078,1.05888 4.83771,-4.50484 3.17244,-10.58867 15.00666,-14.46263 23.57988,-7.71893 3.83163,3.01395 4.32742,4.34793 3.6084,9.70863 -0.84959,6.33418 0.0624,7.59968 3.20906,4.45301 2.98188,-2.98188 16.27197,-2.34982 19.91506,0.94713 4.08775,3.69936 4.15595,9.19458 0.15899,12.81178 -8.38596,7.58919 -43.07544,10.30146 -55.97768,4.37673 z"
     id="path1677" />
</svg>
