<svg width="16" height="12" viewBox="0 0 16 12" fill="none" xmlns="http://www.w3.org/2000/svg">
<path d="M3 3C3.26522 3 3.51957 3.10536 3.70711 3.29289C3.89464 3.48043 4 3.73478 4 4V11C4 11.2652 3.89464 11.5196 3.70711 11.7071C3.51957 11.8946 3.26522 12 3 12H1C0.448667 12 0 11.552 0 11V4C0 3.448 0.448667 3 1 3H3ZM9 0C9.26522 0 9.51957 0.105357 9.70711 0.292893C9.89464 0.48043 10 0.734784 10 1V11C10 11.2652 9.89464 11.5196 9.70711 11.7071C9.51957 11.8946 9.26522 12 9 12H7C6.44867 12 6 11.552 6 11V1C6 0.448 6.44867 0 7 0H9ZM15 5C15.2652 5 15.5196 5.10536 15.7071 5.29289C15.8946 5.48043 16 5.73478 16 6V11C16 11.2652 15.8946 11.5196 15.7071 11.7071C15.5196 11.8946 15.2652 12 15 12H13C12.7348 12 12.4804 11.8946 12.2929 11.7071C12.1054 11.5196 12 11.2652 12 11V6C12 5.73478 12.1054 5.48043 12.2929 5.29289C12.4804 5.10536 12.7348 5 13 5H15Z" fill="white"/>
</svg>
