<svg width="14" height="16" viewBox="0 0 14 16" fill="none" xmlns="http://www.w3.org/2000/svg">
<path d="M9.45343 11.9541L7.65575 13.6908C7.34372 14.0033 6.91368 14.1333 6.43963 14.1333C5.96558 14.1333 5.53604 14.0033 5.22351 13.6908L2.33523 10.7845C2.0252 10.472 1.86668 10.0159 1.86668 9.54187C1.86668 9.06582 2.0252 8.63578 2.33523 8.32575L5.21551 5.40346C5.52554 5.09393 5.96558 4.97392 6.43963 4.97392C6.91368 4.97392 7.34372 5.10393 7.65575 5.41646L9.45343 7.15313C9.79696 7.49717 10.365 7.48467 10.7215 7.12713C11.0756 6.7706 11.0891 6.20304 10.7451 5.85901L9.00838 4.10334C8.55852 3.6596 7.99381 3.35014 7.37772 3.20975L9.02138 1.54309C9.36542 1.19955 9.35492 0.631496 8.99788 0.274961C8.64085 -0.0815741 8.07329 -0.0925752 7.72976 0.248958L0.994597 6.98412C0.341033 7.64018 0 8.54077 0 9.54087C0 10.539 0.341533 11.4711 0.994597 12.1251L3.89338 15.0314C4.54695 15.685 5.45103 16 6.45113 16C7.44873 16 8.35182 15.6585 9.00588 15.0054L10.7456 13.2447C11.0896 12.9032 11.0761 12.3361 10.7195 11.9791C10.363 11.6221 9.79496 11.6091 9.45393 11.9531L9.45343 11.9541ZM12.5937 8.67478H5.82757C5.36152 8.67478 4.98149 9.07532 4.98149 9.57037C4.98149 10.0659 5.36152 10.469 5.82757 10.469H12.5937C13.0603 10.469 13.4403 10.0654 13.4403 9.57037C13.4403 9.07582 13.0603 8.67478 12.5937 8.67478Z" fill="white"/>
</svg>
